<svg width="1062" height="1029" xmlns="http://www.w3.org/2000/svg" aria-hidden="true" ><g fill="none" fill-rule="evenodd"><path d="M558.9 125.83C369.7 92.46 187.27 182.87 94.6 338.92" stroke="#102337" stroke-width="2.1"></path><path d="M790.7 351.48c-53.32-82.3-138.78-143.67-242.71-163.87a372.66 372.66 0 0 0-233.82 30.15" stroke="#102337" stroke-width="2.1"></path><path d="M175.57 514.57c-29.6 167.9 82.63 326.96 250.44 356.55M175.57 514.57a305.83 305.83 0 0 0 26.39 188.2" stroke="#06BDFC" stroke-width="15.75"></path><path d="M175.57 514.57a305.83 305.83 0 0 0 26.39 188.2" stroke="#7933FF" stroke-width="15.75"></path><path d="M101.22 496.19a383.1 383.1 0 0 0 3.38 149.7 383.71 383.71 0 0 0 36.84 98.96" stroke="#102337" stroke-width="2.1"></path><path d="M770.95 458.13c-37.6-97.74-124.02-173.91-234.66-193.42" stroke="#06BDFC" stroke-width="15.75"></path><path d="M786.7 622.32A307.26 307.26 0 0 0 768 450.76" stroke="#FF6EA9" stroke-width="15.75"></path><path d="M256.62 302.82c75.74-64.17 179.24-95.27 285.38-76.55" stroke="#102337" stroke-width="12.6"></path><path d="M426.16 871.15c75.9 13.38 150.6-1.32 211.9-37.68" stroke="#7933FF" stroke-width="15.75"></path><path d="M314.19 846.6c31.65 19.45 68.1 32.8 109.36 40.08 153.37 27.04 300.91-56.73 358.9-193.93" stroke="#213147" stroke-width="15.75"></path><path d="M328.76 317.68c-70.05 41.8-122.23 112.73-137.52 199.45a295.3 295.3 0 0 0-3.2 23.67" stroke="#FF6EA9" stroke-width="15.75"></path><path d="M191.2 517.32c-11.1 63.02-1.91 125 24.87 178.46" stroke="#FFF" stroke-width="15.75"></path><path d="M671.68 912.26C773.14 856.47 849.33 756.89 871 633.99M311.36 208.67c-93.04 44.22-167.7 124.06-203.48 225.18a398.22 398.22 0 0 0-16.73 63.7" stroke="#FF6EA9" stroke-width="21"></path><path d="M619.04 936.38c18.2-6.77 37.78-16.03 54.7-25.34" stroke="#06BDFC" stroke-width="21"></path><path d="M724.08 975.92c114.1-68.39 199.05-184.06 223.97-325.4 20.99-119-4.25-235.48-62.8-330.98M562.63 99.83c-164.32-28.98-323.8 30.27-429.9 143.71" stroke="#213147" stroke-width="52.5" opacity="0.4"></path><path d="M781.56 694.99a331.07 331.07 0 0 0 20.6-69.65c11.13-63.13 3.02-125.28-19.6-180.58" stroke="#FFF" stroke-width="15.75"></path></g></svg>