<svg fill="currentColor" viewBox="0 0 512 512" >
		<path d="M463.5,143.5c-3.1-5.4-7.5-10.2-12.2-13L285.9,35.1c-9.5-5.5-25.1-5.5-34.6,0L86,130.6c-9.5,5.5-17.4,19-17.4,30v190.9
			c0,5.5,2,11.6,5.1,17.1c3.1,5.4,7.5,10.2,12.2,12.9l165.2,95.5c9.6,5.5,25.1,5.5,34.6,0l165.3-95.5c4.8-2.7,9.1-7.5,12.2-12.9
			c3.1-5.4,5-11.6,5-17.1V160.6C468.5,155.1,466.6,148.9,463.5,143.5L463.5,143.5z M268.6,389.3c-73.5,0-133.3-59.7-133.3-133.3
			s59.7-133.3,133.3-133.3c47.6,0.1,91.6,25.5,115.4,66.6l-57.7,33.4c-11.9-20.6-33.9-33.3-57.7-33.3c-36.8,0-66.7,29.9-66.7,66.7
			s29.9,66.7,66.7,66.7c23.8-0.1,45.8-12.8,57.7-33.3l57.7,33.4C360.1,363.8,316.2,389.2,268.6,389.3L268.6,389.3z M401.9,263.4
			h-14.8v14.8h-14.9v-14.8h-14.8v-14.8h14.8v-14.8h14.9v14.8h14.8V263.4z M457.4,263.4h-14.8v14.8h-14.8v-14.8H413v-14.8h14.8v-14.8
			h14.8v14.8h14.8V263.4z"/>
</svg>
