<svg fill="currentColor" viewBox="0 0 40.481 9.525"><path class="st0" d="M30 .4h6v34.2h-6zM57.5 22.9c0 .9-.1 1.8-.4 2.6-.3.8-.7 1.5-1.2 2.2-.5.6-1.1 1.1-1.8 1.4-.7.3-1.5.5-2.3.5-1.3 0-2.4-.4-3.2-1.3-.8-.9-1.2-2.2-1.2-3.8v-16h-6v16c0 3.2.8 5.8 2.3 7.7 1.5 1.9 3.8 2.9 6.8 2.9.9 0 1.8-.1 2.5-.3.7-.2 1.4-.5 2-.8.6-.3 1.1-.7 1.5-1.1l1.1-1.1.2 2.9h5.7V8.5h-6zM82.8 29.6c-.6.3-1.3.4-2.2.4-1 0-1.7-.4-2.2-1.2-.5-.8-.7-1.9-.7-3.4V14.1H84V8.5h-6.4V.4h-6v8.1h-4V14h4v11.8c0 1.4.1 2.7.4 3.9.3 1.2.7 2.2 1.3 3 .6.8 1.4 1.5 2.5 1.9 1 .5 2.2.7 3.7.7 1.4 0 2.7-.2 3.8-.7 1.1-.5 2.3-1.2 3.5-2.3l-2.5-4c-.4.6-1 1-1.5 1.3zM103.2 29.6c-.6.3-1.3.4-2.2.4-1 0-1.7-.4-2.2-1.2-.5-.8-.7-1.9-.7-3.4V14.1h6.4V8.5h-6.4V.4h-6v8.1h-4V14h4v11.8c0 1.4.1 2.7.4 3.9.3 1.2.7 2.2 1.3 3 .6.8 1.4 1.5 2.5 1.9 1 .5 2.2.7 3.7.7 1.4 0 2.7-.2 3.8-.7 1.1-.5 2.3-1.2 3.5-2.3l-2.5-4c-.5.6-1 1-1.6 1.3zM129.4 12.8c-.9-1.4-2.1-2.5-3.6-3.4-1.5-.9-3.3-1.3-5.5-1.3-1.8 0-3.4.3-4.9 1-1.5.7-2.7 1.6-3.8 2.8-1.1 1.2-1.9 2.6-2.5 4.2-.6 1.6-.9 3.4-.9 5.3 0 2.1.3 4 .9 5.7.6 1.7 1.4 3.2 2.5 4.4 1.1 1.2 2.4 2.2 4 2.9 1.5.7 3.3 1 5.2 1 1.9 0 3.4-.2 4.8-.7 1.3-.4 2.4-.9 3.3-1.5.9-.5 1.5-1.1 2-1.6s.7-.8.8-.9l-3.2-3.9c-.2.2-.5.5-.9.8-.4.3-.9.7-1.5 1-.6.3-1.3.6-2.2.8-.9.2-1.9.4-3 .4-.8 0-1.6-.1-2.3-.4-.8-.3-1.5-.7-2.1-1.3-.6-.5-1.1-1.2-1.5-2-.4-.8-.6-1.6-.6-2.6H132v-.9c0-1.8-.2-3.6-.6-5.4-.4-1.5-1.1-3-2-4.4zm-15.2 6.3c0-.7.1-1.3.4-2 .3-.7.7-1.2 1.2-1.8.5-.5 1.1-1 1.9-1.3.8-.3 1.6-.5 2.6-.5.9 0 1.7.2 2.4.5s1.3.8 1.7 1.3c.5.5.8 1.1 1 1.8.2.7.4 1.3.4 2zM151 8.3c-.5-.1-1-.1-1.5-.1-1 0-1.8.1-2.6.4-.8.3-1.4.6-2 .9-.6.4-1.1.8-1.5 1.2-.4.4-.8.8-1 1.2l-.2-3.4h-5.7v26.1h6V20.5c0-.9.2-1.8.5-2.6s.7-1.4 1.3-2c.5-.5 1.2-1 1.9-1.3.7-.3 1.5-.4 2.3-.4.6 0 1.1 0 1.5.1.4.1.8.2 1.2.4l1.2-6.1c-.5-.1-1-.2-1.4-.3zM.4.4h25.3v6.9H.4zM.4 14.1h19V21H.4zM.4 27.8h6.3v6.8H.4z" transform="matrix(.26458 0 0 .26458 .026 .026)"/><path d="M147 1.1h-1V.4h2.8v.7h-1v2.7h-.8ZM149.2.4h.7l.8 1.6.8-1.6h.7l.1 3.4h-.7l-.1-2.2-.7 1.3h-.4l-.7-1.3-.1 2.2h-.7z"  transform="matrix(.26458 0 0 .26458 .026 .026)"/></svg>