<svg  fill="currentColor" viewBox="0 0 49 21" ><path fill-rule="evenodd" d="M28.9 6.73c-1.05 0-1.84.52-1.84 1.76 0 .94.52 1.59 1.8 1.59 1.07 0 1.8-.63 1.8-1.63 0-1.13-.66-1.72-1.75-1.72zm-2.1 8.79c-.26.3-.5.63-.5 1 0 .77.97 1 2.32 1 1.11 0 2.63-.07 2.63-1.1 0-.62-.73-.66-1.65-.72l-2.8-.18zm5.68-8.73c.35.44.72 1.05.72 1.93 0 2.12-1.68 3.37-4.1 3.37-.61 0-1.17-.08-1.52-.17l-.63 1.01 1.88.12c3.33.2 5.29.3 5.29 2.85 0 2.2-1.94 3.44-5.29 3.44-3.48 0-4.8-.88-4.8-2.4 0-.85.38-1.31 1.05-1.94a1.28 1.28 0 0 1-.84-1.27c0-.42.2-.8.55-1.16.35-.37.73-.73 1.2-1.15a3.05 3.05 0 0 1-1.66-2.87c0-2.2 1.46-3.71 4.4-3.71.83 0 1.33.07 1.78.19h3.75v1.62l-1.77.14zm5.08-3.37c-1.07 0-1.68-.64-1.68-1.73 0-1.1.61-1.69 1.68-1.69 1.09 0 1.7.6 1.7 1.69 0 1.1-.61 1.73-1.7 1.73zm-2.42 11.53v-1.52l.96-.13c.26-.04.3-.1.3-.39V7.27c0-.2-.06-.34-.24-.4l-1.01-.37.2-1.55h3.88v7.96c0 .31.02.35.3.39l.95.13v1.51h-5.33zm13.35-.77c-.85.4-2.1.77-3.22.77-2.36 0-3.24-.93-3.24-3.1V6.8c0-.11 0-.19-.16-.19h-1.39V4.9c1.74-.2 2.44-1.04 2.65-3.14h1.88v2.73c0 .14 0 .2.16.2h2.79V6.6H45v4.6c0 1.14.28 1.58 1.34 1.58.56 0 1.13-.14 1.6-.3l.54 1.69M20.08 9.2 11.14.38a1.33 1.33 0 0 0-1.86 0L7.42 2.21l2.36 2.33a1.58 1.58 0 0 1 1.6.37c.45.43.57 1.06.38 1.6l2.27 2.24a1.58 1.58 0 0 1 1.62.37 1.54 1.54 0 0 1 0 2.2 1.58 1.58 0 0 1-2.22 0 1.54 1.54 0 0 1-.34-1.7l-2.12-2.08v5.5a1.54 1.54 0 0 1 .42 2.48 1.58 1.58 0 0 1-2.22 0 1.54 1.54 0 0 1 0-2.19c.15-.15.33-.26.51-.34V7.44a1.55 1.55 0 0 1-.85-2.03L6.51 3.1.4 9.18a1.3 1.3 0 0 0 0 1.84l8.93 8.83a1.33 1.33 0 0 0 1.87 0l8.89-8.79a1.3 1.3 0 0 0 0-1.84"></path></svg>
