<svg fill="currentColor"><path d="M15.75 9.227v5.823h-3.376V9.617c0-1.365-.488-2.296-1.71-2.296-.932 0-1.487.628-1.732 1.235-.09.217-.112.519-.112.822v5.672H5.442s.047-9.202 0-10.155H8.82v1.44l-.023.032h.023v-.032c.448-.691 1.25-1.678 3.042-1.678 2.223 0 3.888 1.451 3.888 4.57zM1.911 0C.756 0 0 .758 0 1.754 0 2.73.734 3.51 1.866 3.51h.022c1.178 0 1.91-.78 1.91-1.755C3.776.758 3.066 0 1.911 0zM.201 15.05h3.375V4.895H.2V15.05z"></path><path d="M.125.125h15.75v15.75H.125z" fill="none" fill-rule="evenodd"></path></svg>
