<svg  fill="currentColor" viewBox="0 0 90 12" ><path  d="M40.48.82c.52 0 1 .24 1.29.65l6.7 10.21h-2.5l-1.18-1.9h-5.73l-1.25-1.9h5.66L40.48 3.2l-5.5 8.5h-2.5l6.69-10.2a1.59 1.59 0 0 1 1.31-.67zm23.3.1v8.86h9.9l-1.26 1.9h-9.68c-.3 0-.57-.11-.77-.3a1 1 0 0 1-.3-.73V.92h2.11zm-35.1 0a3.69 3.69 0 0 1 3.74 3.65c0 2-1.68 3.63-3.74 3.63h-.96l4.26 3.48H28.9L22.56 6.3h5.98c.99 0 1.78-.77 1.78-1.74 0-.96-.8-1.74-1.78-1.74h-7.02v8.86H19.4V.93h9.28zm-15.92 0a5.45 5.45 0 0 1 5.51 5.39 5.44 5.44 0 0 1-5.51 5.37H6.35C3.3 11.68.83 9.28.83 6.31S3.3.92 6.35.92h6.4zm47.76 0-1.24 1.9h-6.24a3.53 3.53 0 0 0-3.57 3.49c0 1.92 1.6 3.47 3.57 3.47h7.65l-1.25 1.9H52.9c-3.04 0-5.52-2.4-5.52-5.37S49.86.93 52.9.93h7.62zm25.81 0-1.26 1.9h-6.22a3.56 3.56 0 0 0-3.44 2.53h10.32l-1.25 1.9h-9.07a3.55 3.55 0 0 0 3.44 2.53h7.65l-1.25 1.9H78.7c-3.05 0-5.52-2.4-5.52-5.37S75.66.93 78.7.93h7.62zm-73.72 1.9H6.5a3.53 3.53 0 0 0-3.57 3.49c0 1.92 1.6 3.47 3.57 3.47h6.13a3.52 3.52 0 0 0 3.57-3.47c0-1.93-1.6-3.49-3.57-3.49zm75.8-2c.71 0 1.28.57 1.28 1.28a1.28 1.28 0 0 1-2.55 0c0-.7.57-1.28 1.27-1.28zm0 .27a1 1 0 0 0-1 1 1 1 0 0 0 1 1 1 1 0 0 0 1.01-1 1 1 0 0 0-1-1zm-.12.25c.2 0 .29 0 .38.04.25.09.28.31.28.4 0 .02 0 .07-.02.12a.37.37 0 0 1-.17.24l-.07.04.33.59h-.32l-.29-.54h-.2v.54h-.28V1.34h.36zm.1.23h-.18V2h.18c.1 0 .19 0 .24-.09a.2.2 0 0 0 .04-.13.2.2 0 0 0-.11-.17.44.44 0 0 0-.18-.03z"></path></svg>
