<svg fill="currentColor" viewBox="0 0 106 18" ><path  d="M9.75 7.32c.75 0 1.25.6 1.26 1.5V15.87c0 .87-.5 1.45-1.25 1.45s-1.25-.56-1.25-1.44V8.8c0-.89.5-1.46 1.24-1.47ZM7.2 13.04c.05.5.02 1 .02 1.51 0 .48.02.95 0 1.42-.03.83-.56 1.38-1.3 1.36-.72-.01-1.18-.55-1.18-1.4V13.2c0-.73.48-1.28 1.13-1.33.67-.05 1.26.45 1.33 1.18Zm6.32-3.8c.73 0 1.23.56 1.24 1.4V15.93c0 .85-.51 1.41-1.24 1.41s-1.24-.57-1.25-1.4v-5.28c0-.84.52-1.41 1.25-1.41Zm3.76-5.04c.75 0 1.24.55 1.24 1.44V16c0 .65-.38 1.13-.94 1.27a1.19 1.19 0 0 1-1.4-.68c-.09-.23-.13-.47-.13-.7V5.6c0-.84.5-1.41 1.23-1.42Zm56.27 1.26c1.64.55 2.33 1.88 2.55 3.52.07.48.05.97.1 1.45.05.5-.17.65-.65.65-1.74-.02-3.45 0-5.18 0h-.7v.02a2.42 2.42 0 0 0 2.24 2.61 4.63 4.63 0 0 0 3.3-.8h.24c0 .51.05 1.04-.02 1.55-.03.17-.24.4-.44.48-1.68.75-3.42.9-5.15.22a3.83 3.83 0 0 1-1.68-1.35c-1.38-1.81-1.45-5.53.65-7.39a4.54 4.54 0 0 1 4.74-.96Zm-27.23-.22c2.98 0 4.8 1.93 4.8 5.12 0 3.23-1.94 5.18-5.19 5.18-3 0-4.98-1.97-4.98-5.02 0-3.25 2.05-5.26 5.37-5.28Zm14.61 1.83c.48 1.93.97 3.87 1.45 5.9.58-2.35 1.15-4.6 1.68-6.86.12-.48.32-.65.8-.63.5.05.98 0 1.59 0-.27.97-.53 1.81-.8 2.68-.65 2.17-1.3 4.34-1.9 6.54-.12.43-.29.65-.8.63-1.82-.03-1.82 0-2.28-1.74L59.26 8.3c-.65 2.22-1.25 4.28-1.83 6.35-.15.5-.34.7-.9.7-1.65 0-1.68.05-2.13-1.54-.77-2.59-1.52-5.17-2.27-7.75-.05-.14-.07-.31-.12-.55.75 0 1.42-.03 2.12.02.14 0 .34.29.39.46.53 2 1 3.98 1.51 5.98.05.22.12.44.3.68.35-1.23.69-2.49 1.05-3.72.29-1.01.55-2.02.9-3.04.04-.17.3-.38.47-.38 1.76-.13 1.76-.13 2.2 1.56ZM31.9 1.57c1.59.07 3.2-.02 4.79.15a3.86 3.86 0 0 1 3.68 3.98 4.38 4.38 0 0 1-3.42 4.49c-.91.19-1.88.19-2.82.21-.45.03-.6.17-.6.63.03 1.23 0 2.44.03 3.67 0 .5-.15.68-.65.63-.56-.05-1.11 0-1.74 0-.02-.3-.05-.49-.05-.65 0-4.1 0-8.23-.02-12.33 0-.6.2-.8.8-.78Zm59.84-.02c1.67.07 3.33 0 4.96.14 1.74.17 2.9 1.33 3.04 2.8.07 1.2-.41 2.66-2.29 3.5 1.9.48 2.84 1.57 2.91 3.3.08 1.58-1.08 3.14-2.74 3.68-.62.2-1.26.3-1.9.33-1.47.05-2.94.03-4.4 0-.08 0-.18-.05-.27-.07-.03-.22-.03-.43-.03-.63 0-4.1.03-8.23-.02-12.33 0-.6.17-.75.75-.72Zm-8.2 3.86c.16.02.4.24.43.38.05.6.02 1.21.02 1.86-.33-.07-.6-.17-.86-.19-1.45-.14-2.5.99-2.53 2.7-.03 1.47 0 2.95 0 4.44v.73h-1.93c-.12 0-.24-.03-.4-.03V5.55h2.26V7.1c.29-.39.45-.68.67-.92.6-.72 1.42-.96 2.34-.77ZM104.9 1.6c.1 0 .23.33.23.53.03 1.71 0 3.42 0 5.11v8.04h-2.4V1.58c.72 0 1.44-.03 2.17.02ZM9.03.1h10.8c1.72 0 2.81 1.16 2.81 2.96v9.18a2.74 2.74 0 0 1-2.66 2.81c-.3 0-.48-.06-.45-.43.03-.3-.07-.6.41-.61 1.1-.03 1.72-.7 1.72-1.86V2.97c0-1.16-.68-1.86-1.78-1.86H3.39c-1.09 0-1.75.7-1.76 1.82v9.32c0 1 .63 1.72 1.55 1.76.62.02.58-.02.57.7l-.02.25c-1.1.34-2.48-.45-2.92-1.7a3.03 3.03 0 0 1-.17-.97V2.88C.64 1.32 1.76.11 3.25.1h5.77ZM43.9 8.3a4.21 4.21 0 0 0-.07 4.1c.45.92 1.32 1.29 2.3 1.29.97 0 1.79-.41 2.17-1.35.27-.58.34-1.24.51-1.86l-.1-.03c-.02-.33-.02-.67-.07-1.01-.12-1.09-.89-2.03-1.83-2.24-1.2-.27-2.33.12-2.91 1.1Zm49.45.85c0 1.38 0 2.63.02 3.88 0 .13.24.37.36.37.77 0 1.57.02 2.31-.1a1.93 1.93 0 0 0 1.71-2c0-1.07-.55-1.76-1.68-1.93-.84-.15-1.73-.17-2.72-.22Zm-23.67.24h4.2c.11-1.38-.63-2.32-1.86-2.39-1.2-.07-2.34 1.09-2.34 2.4Zm-35.8-5.77c-.1 0-.3.22-.3.34-.03 1.45-.03 2.9-.03 4.51.94-.07 1.8-.07 2.62-.24 1.08-.21 1.64-1.13 1.64-2.36 0-1.19-.5-1.93-1.62-2.15-.74-.15-1.54-.1-2.3-.1Zm59.76-.04c-.32.21-.2 1.03-.27 1.59a.7.7 0 0 0-.02.15v.06c0 .49-.03.97.02 1.45 0 .15.22.39.34.39.7 0 1.4.02 2.07-.12 1.3-.31 1.88-2.03 1.06-2.97-.46-.53-2.53-1.01-3.2-.55Z"></path></svg>
