<svg fill="currentColor" viewBox="0 0 64 12" ><path d="m.8 9.57 8.72-3.6V3.7L.8.11v2.71l5.3 2.03L.8 6.88zM9.94 7.93h9.55v2.87H9.94zM29.26 7.47c0-.22-.04-.42-.14-.58a1.4 1.4 0 0 0-.4-.44 2.73 2.73 0 0 0-.6-.33c-.24-.1-.5-.19-.77-.27-.37-.1-.74-.23-1.1-.39a4.24 4.24 0 0 1-.96-.57c-.29-.23-.51-.5-.69-.8s-.26-.64-.26-1.04.09-.75.26-1.07.41-.58.7-.8c.3-.22.64-.39 1.03-.5a4.17 4.17 0 0 1 2.49.02c.4.14.74.33 1.04.58a2.63 2.63 0 0 1 .97 2.03h-1.56a2.17 2.17 0 0 0-.15-.64 1.46 1.46 0 0 0-.87-.82c-.2-.07-.45-.11-.72-.11-.23 0-.45.03-.65.09s-.37.14-.51.26c-.14.11-.26.25-.34.4-.08.17-.12.35-.12.55 0 .22.05.4.16.56.12.16.26.3.45.42.18.12.39.22.62.3s.48.17.74.24c.39.12.77.26 1.12.42.36.17.68.37.95.6.27.24.49.5.65.82.16.3.24.66.24 1.05a2.26 2.26 0 0 1-.98 1.87c-.3.21-.64.37-1.04.48a4.64 4.64 0 0 1-2.91-.17c-.26-.1-.5-.24-.73-.4a2.69 2.69 0 0 1-1.13-2.16h1.56c.03.28.09.53.2.73.1.2.23.38.4.52s.38.24.61.3a2.65 2.65 0 0 0 1.43.03c.2-.05.38-.14.53-.24.15-.11.27-.24.35-.4.09-.16.13-.34.13-.54zm4.66-3.53c.24-.34.53-.6.88-.79.35-.19.74-.28 1.16-.28.37 0 .7.05 1 .15.3.1.57.27.78.5.22.22.39.5.51.85s.18.76.18 1.25v4.22h-1.55V5.61c0-.27-.03-.49-.1-.68-.06-.19-.16-.34-.28-.46s-.28-.22-.45-.28a1.9 1.9 0 0 0-.6-.08 1.8 1.8 0 0 0-1.53.76v4.97h-1.55V.12h1.55zm9.68 6.03c-.52 0-1-.09-1.42-.26a3.12 3.12 0 0 1-1.8-1.74c-.18-.4-.26-.84-.26-1.3V6.4c0-.54.09-1.03.26-1.46s.42-.81.72-1.12a3.28 3.28 0 0 1 2.31-.96c.51 0 .96.09 1.35.26.4.16.72.4.98.7.26.3.46.66.59 1.07.13.41.2.87.2 1.36v.64h-4.86c.03.27.1.51.2.74s.25.43.43.6a1.93 1.93 0 0 0 1.39.53c.39 0 .75-.08 1.08-.23.33-.15.6-.36.8-.63l.85.78a3.02 3.02 0 0 1-1.06.89 3.81 3.81 0 0 1-1.76.4zm-.2-5.88c-.2 0-.4.04-.6.11s-.35.19-.5.33c-.14.15-.26.33-.37.53-.1.21-.17.45-.21.72H45v-.12c-.01-.2-.05-.4-.12-.58s-.16-.36-.3-.5c-.12-.15-.29-.27-.48-.36-.2-.09-.43-.13-.7-.13zM48.59.12h3.79v8.47h2.14v1.25h-5.93V8.6h2.23V1.38h-2.23zm7.96 0h3.8v8.47h2.13v1.25h-5.93V8.6h2.23V1.38h-2.23z"></path></svg>
