<svg  viewBox="0 0 156 30" fill="currentColor" fill-rule="evenodd"><path  d="M59.3 27.1c.45 0 .81.13 1.1.4a1.4 1.4 0 0 1 .45 1.05c0 .42-.16.78-.45 1.05-.29.27-.65.4-1.1.4-.45 0-.82-.13-1.1-.4a1.39 1.39 0 0 1-.45-1.05 1.4 1.4 0 0 1 .44-1.05c.3-.27.66-.4 1.1-.4zm-14.53 0c.25 0 .51.05.78.15l.2.08v.58a2.2 2.2 0 0 0-.94-.28c-.27 0-.42.08-.42.22 0 .12.13.22.39.32.25.09.5.17.7.3.26.15.38.39.38.7 0 .5-.4.83-1.12.83-.3 0-.58-.06-.84-.19l-.15-.08v-.62c.36.21.65.35.97.35.28 0 .42-.09.42-.25 0-.17-.13-.22-.38-.3-.71-.26-1.06-.5-1.06-1 0-.47.42-.8 1.07-.8zm57.83.05.55 1.52.56-1.52h.48l.56 1.53.55-1.53h.74l-1.15 2.83h-.3l-.64-1.76-.65 1.76h-.29l-1.16-2.83h.75zm45.18 0v.51h-1.2v.58h1.15v.52h-1.14v.67h1.23v.52h-1.94v-2.8h1.9zm-15.16 0c.76 0 1.13.25 1.13.81 0 .3-.15.53-.5.68a.58.58 0 0 1 .29.25l.05.1.46.96h-.8l-.37-.8c-.11-.26-.24-.34-.52-.34h-.08v1.14h-.71v-2.8h1.05zm-13.74 0 1.12 2.8h-.76l-.2-.54h-1.23l-.23.54h-.76l1.24-2.8h.82zm-28.53 0v.52h-.94v2.28h-.75v-2.28h-.94v-.52h2.63zm-15 0v.51H74.2v.61h1.06v.53h-1.06v1.15h-.71v-2.8h1.84zm-16.05.54c-.48 0-.82.36-.82.86s.34.86.82.86c.47 0 .81-.35.81-.86 0-.5-.34-.86-.81-.86zm-43.58-5.03v2.77h2.52v1.07h-2.52v2.77h-1.2V26.5H12v-1.07h2.52v-2.77h1.2zm102.73 5.2-.44 1.07h.85l-.4-1.07zm14.17-.21h-.34v.65h.34c.27 0 .4-.1.4-.33 0-.2-.14-.32-.4-.32zM8 17.05v3.97h3.72v1.21H8.01v3.97H6.6v-3.97H2.88v-1.2H6.6v-3.98H8zm15.6 0v3.97h3.71v1.21H23.6v3.97h-1.41v-3.97h-3.72v-1.2h3.72v-3.98h1.4zM98.07 5.26v18.18H96V5.26h2.07zm13.87 6.56c2.96 0 4.68 2.16 4.53 5.34h-7.13c.17 1.76 1.24 2.6 2.71 2.7 1.23.1 2.95-.18 3.9-.75v1.93a7.49 7.49 0 0 1-4.15.7c-3.18-.3-4.73-2.5-4.64-5.1.1-2.82 1.95-4.82 4.78-4.82zM45.5 7.86v5.77h5.58v1.9h-5.58v6.24h-2.06v-6.25h-5.58v-1.9h5.58V7.87h2.06zm34.74-.65v5.08c.99-.38 1.86-.5 2.42-.5 2.78 0 4.67 1.93 4.67 4.95 0 3.13-1.98 4.96-5.47 4.96-1.21 0-2.4-.23-3.64-.64L78.17 7.2h2.08zm-12.12 4.54-.06 9.3c-.87.38-2.31.65-3.64.65-3.48.01-5.46-1.83-5.46-4.96 0-3.02 1.88-4.95 4.66-4.95.94 0 1.72.2 2.42.65v-.69h2.08zm65.9 0-.06 9.3c-.88.38-2.32.65-3.64.65-3.5.01-5.47-1.83-5.47-4.96 0-3.02 1.88-4.95 4.67-4.95.94 0 1.71.2 2.41.65v-.69h2.09zm10.85.25v6.01c0 1.47.89 2.13 2.2 2.13 1.3 0 2.18-.66 2.18-2.13V12h2.1v6.27c0 2.1-1.66 3.37-4.29 3.37-2.62 0-4.27-1.28-4.27-3.37V12h2.08zm-62.61 1.68c-.76 0-1.49.26-2.02.5v5.29c.65.23 1.25.35 1.83.35 1.95 0 3.06-1.1 3.06-3.06 0-1.92-1.12-3.08-2.87-3.08zm-18.24 0c-1.75 0-2.87 1.16-2.87 3.08 0 1.96 1.12 3.08 3.06 3.06a7.54 7.54 0 0 0 1.79-.23l.04-5.25a3.5 3.5 0 0 0-2.02-.66zm65.9 0c-1.76 0-2.88 1.16-2.88 3.08 0 1.96 1.12 3.06 3.07 3.06a7.61 7.61 0 0 0 1.78-.23l.04-5.25a3.5 3.5 0 0 0-2.01-.66zM15.9 9.35v4.43h4.15v1.58h-4.15v4.43h-1.63v-4.43h-4.15v-1.58h4.15V9.35h1.63zm11.74 1.92v2.76h2.52v1.08h-2.52v2.76h-1.2V15.1h-2.53v-1.06h2.52v-2.77h1.2zm-24.27.2v2.67h2.5v.82l-2.5.02v2.68H2.5v-2.68L0 15v-.86h2.5v-2.66h.88zm106.09 4.2h4.73c-.05-1.25-.73-1.9-1.93-1.97a2.78 2.78 0 0 0-2.8 1.96zm45.31-3.75c.68 0 1.22.54 1.22 1.22a1.2 1.2 0 0 1-1.22 1.22 1.22 1.22 0 1 1 0-2.44zm0 .19c-.55 0-1 .46-1 1.03 0 .58.45 1.03 1 1.03a1 1 0 0 0 1-1.03 1 1 0 0 0-1-1.03zm-.06.34c.2 0 .34.05.43.1.08.07.12.16.12.29 0 .18-.12.29-.26.33v.01c.12.02.2.13.23.33.03.21.06.3.08.34h-.23a.96.96 0 0 1-.09-.35c-.03-.17-.12-.24-.3-.24h-.15v.59h-.22v-1.36c.11-.02.22-.04.39-.04zm-.01.17-.16.01v.46h.16c.18 0 .33-.06.33-.23 0-.12-.08-.24-.33-.24zM23.6 2.83v3.99h3.71v1.21H23.6v3.95h-1.41V8.03h-3.72V6.82h3.72V2.83h1.4zm-15.64 0v3.99h3.76v1.17H7.96v3.99H6.64V7.99H2.88V6.82h3.76V2.83h1.32zM15.57 0v2.72h2.5v.82h-2.5v2.72h-.9V3.54h-2.5v-.82h2.5V0h.9z"></path></svg>
