<svg viewBox="0 0 99 98" ><g fill="none" fill-rule="evenodd"><ellipse cx="49.4" cy="48.75" fill="#ff6ea9" rx="49.4" ry="48.75"></ellipse><g fill="#05192d" fill-rule="nonzero"><path d="M20.65 51.33 49.1 71.2l.31.21 28.83-20.04 1.64 1.16a3.3 3.3 0 0 1 .16 5.24l-.16.13-28.6 20.15a3.25 3.25 0 0 1-3.74 0L18.93 57.9a3.3 3.3 0 0 1 0-5.37l1.72-1.21z"></path><path d="M47.53 19.44 18.93 39.6a3.25 3.25 0 0 0 0 5.32l28.6 20.15c1.12.79 2.62.79 3.74 0l28.6-20.15a3.25 3.25 0 0 0 0-5.32l-28.6-20.15a3.25 3.25 0 0 0-3.74 0zm1.87 6.63 22.96 16.18L49.4 58.42 26.44 42.25z"></path><path d="m60.06 38.29 5.46 3.84.1.15-14.3 10.4c-1.1.8-2.56.83-3.69.09l-.13-.1-14.15-10.29 5.61-3.95 10.45 7.6z"></path><path d="M52.65 13v34.03h-6.5V13z"></path></g></g></svg>
