<svg version="1.1" xmlns="http://www.w3.org/2000/svg" xmlns:xlink="http://www.w3.org/1999/xlink" fill="currentColor"
	  viewBox="0 0 595.28 595.28" enable-background="new 0 0 595.28 595.28" xml:space="preserve">
	<path fill-rule="evenodd" clip-rule="evenodd" d="M1.396,526.929c9.026,0,18.053,0,27.242,0
		c-0.064-0.775-0.01-1.245-0.152-1.645c-1.193-3.354-2.241-6.777-3.677-10.026c-3.298-7.46-4.565-15.408-5.819-23.348
		c-0.925-5.853-1.632-11.75-2.164-17.652c-0.438-4.852-0.548-9.737-0.679-14.61c-0.52-19.325,1.993-38.332,6.343-57.107
		c1.742-7.518,3.691-15.007,5.989-22.37c7.336-23.504,17.09-45.992,28.765-67.671c8.178-15.185,16.868-30.068,26.571-44.314
		c9.808-14.398,19.94-28.582,30.186-42.674c5.468-7.52,11.307-14.79,17.276-21.922c12.692-15.165,25.291-30.423,38.472-45.158
		c11.686-13.063,24.039-25.535,36.232-38.138c5.808-6.002,11.77-11.875,17.948-17.493c7.393-6.722,15.012-13.203,22.681-19.611
		c6.744-5.635,13.536-11.235,20.587-16.474c9.924-7.373,19.839-14.818,30.254-21.453c10.89-6.938,22.264-13.144,33.618-19.319
		c12.832-6.98,26.273-12.685,40.271-16.873c8.695-2.602,17.549-4.793,26.456-6.524c5.488-1.066,11.222-1.339,16.827-1.214
		c8.329,0.185,16.477,1.785,24.043,5.524c0.94,0.465,1.622,1.455,2.737,2.493c-2.407,0.437-3.122,1.536-2.464,2.823
		c-1.812,2.967-3.393,5.594-5.011,8.198c-1.633,2.627-3.028,5.47-5.033,7.778c-1.91,2.198-4.373,3.973-6.778,5.669
		c-2.575,1.816-2.644,2.895,0.049,4.584c2.838,1.782,5.893,3.333,8.399,5.509c6.975,6.055,9.614,14.353,11.002,23.115
		c2.151,13.58,1.414,27.109-1.05,40.583c-0.391,2.142-0.802,4.285-1.071,6.443c-0.066,0.532,0.387,1.129,0.601,1.696
		c0.509-0.22,1.193-0.3,1.494-0.684c1.303-1.656,2.49-3.402,3.725-5.113c5.971-8.279,13.383-14.869,22.635-19.298
		c0.474-0.227,0.97-0.416,1.47-0.573c1.387-0.437,2.781-0.847,4.126-1.522c1.579,0.378,1.493,1.958,1.353,3.21
		c-0.763,6.797-1.3,13.655-2.652,20.343c-1.603,7.926-3.759,15.758-6.055,23.519c-1.488,5.032-3.457,9.949-5.566,14.762
		c-2.982,6.807-6.089,13.578-9.517,20.168c-4.009,7.706-8.388,15.222-12.671,22.783c-2.372,4.187-4.771,8.365-7.35,12.426
		c-3.989,6.284-7.978,12.58-12.269,18.658c-5.929,8.399-11.886,16.802-18.295,24.833c-7.535,9.443-15.502,18.547-23.407,27.689
		c-4.533,5.244-9.24,10.344-14.009,15.377c-4.84,5.109-9.719,10.196-14.816,15.044c-8.521,8.104-17.195,16.048-25.878,23.979
		c-3.478,3.176-7.054,6.259-10.754,9.169c-5.449,4.285-11.036,8.396-16.592,12.544c-3.854,2.878-7.699,5.777-11.657,8.507
		c-2.363,1.63-4.94,2.947-7.417,4.411c-6.494,3.841-13.447,6.657-20.723,8.489c-10.466,2.636-20.194,0.493-28.953-5.715
		c-3.216-2.279-6.548-4.625-9.087-7.577c-3.649-4.243-6.245-9.227-7.778-14.738c-2.371-8.521-1.986-16.91,0.257-25.391
		c4.012-15.165,12.091-28.165,21.388-40.488c6.267-8.306,12.61-16.584,19.415-24.447c6.757-7.809,14.011-15.203,21.276-22.552
		c6.01-6.081,12.268-11.925,18.576-17.7c5.439-4.979,10.965-9.914,17.68-13.188c6.178-3.012,13.22-1.55,17.911,3.642
		c0.522,0.577,1.149,1.058,2.031,1.859c2.229-2.394,4.433-4.713,6.586-7.08c13.156-14.457,25.212-29.8,36.077-46.031
		c7.447-11.125,14.663-22.439,21.321-34.049c6.176-10.768,11.22-22.157,13.963-34.37c0.864-3.843,1.227-7.813,1.595-11.746
		c0.122-1.317-0.279-2.761-0.737-4.04c-1.153-3.215-2.324-3.915-5.784-4.007c-3.673-0.098-7.088,0.665-10.596,1.908
		c-7.014,2.486-13.625,5.728-19.852,9.686c-7.375,4.689-14.688,9.521-21.69,14.743c-8.02,5.981-15.785,12.32-23.437,18.771
		c-5.006,4.22-9.596,8.932-14.405,13.388c-3.271,3.032-6.619,5.979-9.89,9.012c-1.096,1.015-2.015,2.217-3.084,3.263
		c-3.348,3.274-6.802,6.441-10.081,9.783c-5.403,5.508-10.713,11.108-16.038,16.692c-3.53,3.702-7.093,7.375-10.506,11.183
		c-6.212,6.93-12.375,13.907-18.458,20.951c-3.39,3.924-6.585,8.016-9.856,12.042c-4.685,5.765-9.471,11.451-14.01,17.328
		c-5.743,7.436-11.473,14.896-16.863,22.588c-7.552,10.777-14.895,21.706-22.118,32.708c-4.442,6.766-8.519,13.773-12.711,20.702
		c-4.328,7.152-8.814,14.221-12.837,21.543c-4.944,8.998-9.637,18.145-14.142,27.371c-3.488,7.145-6.914,14.367-9.645,21.819
		c-2.872,7.838-5.165,15.921-7.188,24.028c-1.75,7.013-2.784,14.207-4.103,21.327c-0.514,2.777-0.698,2.909-3.328,2.143
		c-0.476-0.139-1.034,0.007-1.554,0.019c-3.529,0.083-6.533-0.798-8.852-3.8c-4.308-5.577-6.171-12.035-6.344-18.825
		c-0.229-9.073,0.247-18.164,0.388-27.248c0.008-0.534-0.27-1.073-0.415-1.61c-0.498,0.331-1.202,0.55-1.456,1.015
		c-0.852,1.56-1.624,3.175-2.282,4.826c-3.4,8.533-5.819,17.339-7.409,26.391c-2.433,13.841-3.239,27.788-2.765,41.806
		c0.583,17.233,2.803,34.217,8.936,50.459c2.21,5.853,4.841,11.55,8.793,16.516c1.637,2.058,3.118,4.24,4.775,6.28
		c6.731,8.287,15.205,14.137,25.212,17.777c3.713,1.352,7.41,2.821,11.228,3.786c2.643,0.667,5.477,0.701,8.23,0.76
		c2.752,0.059,4.75-1.395,5.382-4.087c1.737-7.407,3.139-14.852,0.831-22.435c-0.36-1.184-0.343-2.478-0.605-3.697
		c-0.37-1.725,0.504-1.993,1.871-1.688c9.854,2.2,19.854,2.951,29.884,2.204c14.35-1.067,28.275-4.352,41.841-9.126
		c12.648-4.451,24.832-9.989,36.621-16.336c7.061-3.801,13.958-7.942,20.71-12.271c9.902-6.35,19.801-12.738,29.345-19.605
		c9.171-6.599,17.943-13.759,26.786-20.804c6.713-5.348,13.385-10.76,19.852-16.4c8.547-7.456,16.933-15.101,25.279-22.782
		c7.119-6.553,14.114-13.242,21.105-19.933c3.718-3.557,7.279-7.274,10.975-10.854c1.344-1.303,1.77-2.741,1.237-4.479
		c-0.947-3.093-1.975-6.161-2.87-9.268c-0.361-1.254-0.463-2.583-0.682-3.877c0.277-0.113,0.556-0.226,0.833-0.338
		c0.485,0.733,1.144,1.406,1.427,2.211c1.357,3.862,2.613,7.761,3.95,11.78c1.889-1.302,0.253-2.983,0.558-4.556
		c2.583,1.131,4.344,3.112,5.893,5.291c1.938,2.729,2.714,3.128,5.98,2.357c1.968-0.464,3.892-1.115,6.147-1.773
		c1.194,5.152,2.364,10.108,3.488,15.075c0.706,3.12,1.498,6.233,1.962,9.393c0.4,2.728-0.737,3.61-3.45,3.14
		c-0.813-0.142-1.633-0.25-2.621-0.399c1.258,2.229,3.709,3.151,5.826,2.395c2.008-0.716,2.871-2.708,2.255-5.467
		c-0.791-3.543-1.684-7.062-2.482-10.602c-0.521-2.311-0.955-4.641-1.119-7.052c0.32,1.125,0.682,2.24,0.953,3.376
		c1.015,4.235,2.041,8.469,2.973,12.723c0.279,1.275,0.384,2.618,0.36,3.926c-0.045,2.511-1.311,3.742-3.789,3.904
		c-0.132,0.009-0.264,0.012-0.396,0.013c-1.442,0.019-3.25-0.481-4.219,0.205c-0.909,0.644-0.737,2.644-1.39,3.861
		c-0.83,1.55-1.881,3.029-3.062,4.337c-9.858,10.913-19.718,21.827-29.682,32.645c-7.063,7.667-14.131,15.339-21.478,22.729
		c-11.065,11.132-22.149,22.265-33.665,32.924c-7.433,6.88-15.528,13.072-23.562,19.268c-4.88,3.764-10.14,7.056-15.357,10.355
		c-3.854,2.437-7.985,1.963-12.002,0.24c-1.495-0.642-2.389-2.785-1.617-4.63c1.52-3.634,3.475-7.084,5.016-10.709
		c1.076-2.529,1.795-5.215,2.589-7.856c0.12-0.4-0.076-1.166-0.378-1.352c-0.336-0.205-1.075-0.103-1.438,0.152
		c-1.129,0.793-2.232,1.651-3.225,2.609c-7.311,7.061-14.668,14.078-20.881,22.178c-2.217,2.891-3.166,6.174-3.43,9.735
		c-0.106,1.438,0.713,2.045,1.917,2.321c2.573,0.59,5.152,1.156,7.735,1.703c8.84,1.873,17.198,5.03,25.239,9.147
		c9.858,5.047,20.3,7.814,31.467,7.382c0.264-0.01,0.544,0.035,0.789-0.036c0.896-0.264,1.781-0.564,2.67-0.853
		c-0.698-0.607-1.311-1.381-2.109-1.797c-5.434-2.823-9.34-6.784-10.403-13.1c-0.255-1.511,0.168-2.109,1.619-2.159
		c0.923-0.032,1.844-0.146,2.766-0.146c29.251-0.005,58.501-0.003,87.752,0.013c0.963,0,1.926,0.149,2.889,0.229
		c0.064,0.189,0.129,0.378,0.192,0.566c-1.984,1.183-3.967,2.369-5.955,3.546c-5.102,3.022-10.231,6-15.291,9.09
		c-1.276,0.78-2.4,1.851-3.478,2.907c-1.479,1.453-1.204,2.602,0.876,3.012c2.58,0.509,5.22,0.845,7.847,0.963
		c5.866,0.264,11.74,0.354,17.61,0.498c2.164,0.053,4.353-0.114,6.482,0.17c0.765,0.102,1.882,1.156,1.998,1.906
		c0.496,3.188,0.746,6.422,0.954,9.647c0.236,3.657-0.381,4.45-3.843,5.517c-0.293,0.09-0.557,0.271-1.277,0.634
		c1.037,0.162,1.617,0.253,2.744,0.429c-1.234,0.329-1.958,0.631-2.704,0.7c-1.771,0.164-3.554,0.306-5.331,0.306
		c-61.54,0.015-123.079,0.03-184.618-0.033c-3.636-0.004-6.873,0.64-10.169,2.29c-11.872,5.944-24.142,11.005-36.764,15.127
		c-5.766,1.882-11.733,3.141-17.572,4.813c-11.302,3.235-22.872,4.301-34.565,4.879c-13.069,0.646-26.008-0.313-38.81-2.672
		c-5.727-1.055-11.199-3.431-16.847-4.987c-8.232-2.269-15.542-6.574-23.09-10.319c-3.136-1.556-5.962-3.85-8.674-6.112
		c-2.292-1.911-4.598-3.031-7.668-3.014c-15.913,0.094-31.826,0.083-47.739-0.008c-2.129-0.012-4.254-0.679-6.381-1.042
		C1.396,553.077,1.396,540.003,1.396,526.929z M415.869,387.35c0.702-0.104,0.909-0.099,1.084-0.17
		c0.241-0.1,0.477-0.234,0.684-0.395c4.397-3.402,7.332-7.88,9.462-12.94c0.125-0.297,0.159-0.643,0.182-0.969
		c0.108-1.635-0.58-2.239-2.137-1.771c-2.316,0.696-4.182,2.059-5.162,4.304c-1.373,3.145-2.622,6.346-3.848,9.551
		C415.881,385.62,415.963,386.409,415.869,387.35z M381.739,428.646c-8.389,5.169-16.177,11.041-22.437,18.731
		C367.829,442.388,375.3,436.131,381.739,428.646z M321.208,479.691c6.208-3.455,12.19-7.199,16.975-12.547
		C331.849,470.416,326.137,474.529,321.208,479.691z"/>
	<path fill-rule="evenodd" clip-rule="evenodd" d="M329.479,372.446c2.917,4.755,5.423,9.693,6.997,15.079
		c0.464,1.587,1.628,1.559,3.818,0.152c-0.053-0.917-0.219-1.731-0.125-2.516c0.338-2.809,0.905-5.596,1.105-8.41
		c0.133-1.873-0.833-3.414-2.829-3.761c-5.971-1.037-9.202-5.154-11.405-10.246c-2.567-5.934-3.952-12.187-3.847-18.684
		c0.063-3.843,0.999-7.448,3.818-10.309c0.416-0.422,0.83-0.854,1.3-1.211c1.554-1.183,2.443-0.787,2.674,1.159
		c0.557,4.709,4.548,8.86,8.588,9.036c1.739,0.076,3.102-0.495,4.126-1.874c1.063-1.431,2.044-2.924,3.156-4.314
		c2.504-3.129,5.053-6.223,7.609-9.31c1.246-1.505,2.457-1.389,4.07-0.252c3.506,2.47,6.8,10.153,5.522,14.136
		c-0.776,2.417-2.077,4.666-3.144,6.989c-0.056,0.119-0.14,0.225-0.198,0.343c-2.182,4.419-2.681,6.221,3.665,8.286
		c0.873,0.284,1.807,0.551,2.71,0.543c2.503-0.021,4.444,0.809,5.734,3.172c0.039-0.511,0.078-1.021,0.121-1.589
		c0.22,0.013,0.48-0.052,0.567,0.044c0.834,0.918,1.591,1.911,2.462,2.791c1.515,1.528,2.7,1.378,3.109-0.657
		c1.265-6.297,2.862-12.538,0.585-19.058c-3.759-10.757-5.415-21.912-4.935-33.309c0.178-4.195,0.515-8.541,4.021-11.627
		c0.917-0.807,2.094-1.684,3.229-1.808c3.7-0.405,7.339,0.072,10.409,2.425c0.947,0.727,1.784,1.765,2.313,2.838
		c1.906,3.867,2.563,8.062,2.841,12.32c0.281,4.32,0.633,8.641,0.742,12.966c0.074,2.949-0.381,5.914-0.272,8.86
		c0.056,1.511,0.826,2.995,1.273,4.492c0.227-0.023,0.453-0.047,0.679-0.07c0.193-0.521,0.479-1.025,0.566-1.563
		c1.435-8.828,1.981-17.722,1.231-26.629c-0.725-8.607-1.896-17.175-2.692-25.777c-0.178-1.914,0.32-3.909,0.658-5.84
		c0.105-0.603,0.708-1.118,1.306-2.001c0,3.111,0,5.726,0,8.341c0.173,0.012,0.347,0.024,0.521,0.036
		c0.094-0.875,0.422-1.804,0.231-2.611c-0.428-1.818,0.598-2.275,1.979-2.401c0.974-0.089,1.968,0.073,2.953,0.078
		c1.444,0.007,2.957,0.24,4.315-0.11c1.735-0.447,2.576,0.26,2.997,1.664c1.915,6.398,3.758,12.818,5.625,19.231
		c0.036,0.125,0.005,0.275,0.058,0.39c1.186,2.538,0.688,4.406-1.321,6.606c-1.667,1.827-2.5,4.614-3.156,7.119
		c-0.934,3.561-1.433,7.241-1.995,10.89c-0.48,3.119-0.411,6.312,1.13,9.099c2.143,3.875,2.068,8.118,2.593,12.27
		c0.268,2.125,0.29,4.28,0.766,6.459c0.292-0.886,0.583-1.771,0.936-2.843c1.904,7.396-1.91,12.267-8.94,12.507
		c-5.162,0.176-9.668-2.36-14.198-4.524c-0.73-0.349-1.495-0.624-2.625-1.091c0.326,3.274,0.682,6.107,0.878,8.952
		c0.378,5.444,0.576,10.923-1.235,16.166c-2.216,6.413-10.125,8.923-15.421,6.829c-5.681-2.246-9.942-6.185-13.326-11.126
		c-3.93-5.737-6.186-12.226-8.137-18.833c-0.261-0.883-0.648-1.729-0.902-2.613c-0.178-0.614-0.229-1.267-0.336-1.901
		c0.798-0.083,1.595-0.197,2.395-0.225c0.204-0.007,0.419,0.263,0.912,0.6c0.369-3.837-1.421-7.016-1.817-10.907
		c-3.627,4.589-7.252,8.605-9.658,13.826c0.855,0,1.275,0,1.671,0c0.178,1.11,0.34,2.12,0.508,3.168
		c0.728-1.272,1.377-2.408,2.026-3.544c0.151,0.064,0.304,0.13,0.455,0.195c0.731,6.734,1.889,13.46,2.041,20.207
		c0.096,4.241-1.294,8.521-2.071,12.772c-0.111,0.607-0.529,1.159-1.136,1.656c0.411-4.256,0.822-8.51,1.232-12.765
		c-1.773,4.848-1.636,10.217-4.771,14.607c0.157-0.519,0.315-1.037,0.443-1.455c-2.187,1.896-4.396,3.767-6.538,5.709
		c-0.382,0.348-0.609,0.977-0.697,1.511c-0.117,0.707-0.066,1.45-0.021,2.174c0.146,2.353-0.293,4.333-2.496,5.773
		c-3.604,2.355-3.811,6.103-3.523,9.895c0.14,1.853,0.555,3.684-2.271,4.644c1.1,0.181,1.622,0.268,2.374,0.392
		c-0.502,0.711-0.886,1.255-1.27,1.799c0.09,0.152,0.18,0.305,0.27,0.458c1.755-0.835,3.51-1.67,5.747-2.734
		c-1.703,2.981-4.175,4.169-6.665,5.262c-6.479,2.844-12.802,1.587-19.021-0.935c-1.996-0.81-3.904-1.839-5.967-2.822
		c-1.379,3.238-0.312,6.885-2.626,10.023c-0.296-1.151-0.51-1.981-0.748-2.906c-1.972,2.333-3.073,4.842-3.681,7.725
		c-0.537,2.549-1.718,4.961-2.469,7.541c0.585-0.828,1.17-1.656,1.826-2.584c-0.105,2.414-1.007,4.021-5.025,9.085
		c2.398-0.792,2.742-1.221,8.087-9.836c-0.576,3.765-1.98,7.117-4.778,9.873c-5.891,5.804-12.986,7.425-20.788,5.549
		c-4.064-0.977-7.918-2.835-11.857-4.321c-0.782-0.295-1.517-0.713-2.451-1.159c-1.009,3.023-1.836,5.89-2.915,8.657
		c-3.11,7.978-8.779,13.068-17.303,14.589c-5.482,0.978-10.411-0.987-15.151-3.475c-1.46-0.766-2.886-1.609-4.269-2.508
		c-1.521-0.988-2.169-0.402-2.718,1.116c-0.979,2.707-2.129,5.352-3.208,8.022c-0.177-0.048-0.354-0.097-0.531-0.145
		c0.097-0.436,0.167-0.88,0.294-1.308c0.902-3.036,1.844-6.061,2.716-9.106c1.006-3.511,2.09-3.84,5.183-2.006
		c3.044,1.804,6.269,3.306,9.425,4.917c0.268,0.137,0.622,0.105,1.496,0.233c-0.717-0.563-0.997-0.835-1.324-1.03
		c-3.335-1.987-6.717-3.898-10.006-5.959c-2.919-1.829-4.625-1.321-5.57,2.023c-1.292,4.566-2.573,9.122-5.383,13.1
		c0.48-1.502,0.961-3.005,1.423-4.448c-1.452,2.279-2.917,4.557-4.359,6.846c-3.035,4.817-12.558,7.62-17.666,1.457
		c-0.656-0.791-1.477-1.444-2.442-2.062c0.864,1.483,1.729,2.967,2.877,4.937c-1.04-0.854-1.655-1.358-2.547-2.091
		c3.59,5.076,6.657,7.332,13.4,7.633c-4.526,1.246-8.24,0.583-11.596-2.028c-4.325-3.365-6.661-7.938-7.86-13.158
		c-0.468-2.038-0.752-4.117-1.12-6.178c-0.223-0.018-0.445-0.034-0.667-0.052c-0.96,6.252-1.92,12.504-2.88,18.756
		c-0.142-0.017-0.285-0.033-0.427-0.05c0-2.963,0-5.927,0-8.89c-0.105-0.016-0.211-0.031-0.316-0.047
		c-0.255,1.334-0.437,2.688-0.781,3.998c-0.658,2.502-1.26,5.038-2.215,7.429c-0.277,0.694-1.686,1.349-2.557,1.325
		c-5.707-0.157-10.572-2.39-14.569-6.463c-1.792-1.826-3.449-3.79-5.311-5.539c-0.793-0.745-1.953-1.099-3.092-1.43
		c5.408,8.891,11.965,16.405,22.811,19.321c-3.031,0.841-5.724,0.303-8.116-1.133c-11.209-6.726-18.99-15.922-20.256-29.454
		c-0.341-3.652-0.059-7.363-0.058-11.047c0.003-7.065-0.125-14.134,0.045-21.195c0.255-10.617,0.587-21.236,1.171-31.839
		c0.19-3.455,1.188-6.881,1.987-10.28c0.27-1.147,1.064-2.173,1.902-3.167c-2.244,7.738-2.724,15.614-2.404,23.583
		c0.36-4.394,0.72-8.786,1.09-13.299c2.292,0.451,3.966,1.421,4.949,3.236c1.694,3.127,3.245,6.33,4.872,9.493
		c1.166,2.265,2.579,4.432,3.486,6.794c1.292,3.363,2.622,6.801,3.188,10.326c0.512,3.189-0.098,6.543,0.002,9.817
		c0.119,3.936,0.465,7.864,1.076,11.926c0.333-0.776,0.665-1.554,0.997-2.33c0.137-0.006,0.273-0.011,0.41-0.016
		c0,2.678,0.167,5.369-0.047,8.03c-0.215,2.663-0.777,5.303-1.252,7.94c-0.483,2.682-1.046,5.35-1.574,8.023
		c0.234,0.069,0.469,0.139,0.703,0.208c0.191-0.536,0.412-1.064,0.567-1.611c2.351-8.318,4.637-16.655,7.074-24.948
		c0.703-2.391,1.65-4.753,2.824-6.946c1.103-2.062,2.553-3.964,4.029-5.792c3.183-3.939,7.235-2.637,11.197-1.655
		c0.124,0.031,0.229,0.13,0.35,0.176c4.779,1.825,5.72,2.586,4.496,8.468c-0.411,1.975-0.947,4.01-0.845,5.987
		c0.183,3.537-2.483,4.182-4.766,5.125c-1.097,0.453-2.479,0.371-3.708,0.264c-0.473-0.041-0.88-0.826-1.415-1.371
		c-2.19,3.023-4.216,6.327-4.926,10.233c-0.166,0.911,0.509,1.944,0.521,2.925c0.016,1.368-0.228,2.74-0.114,4.199
		c0.658-1.428,1.315-2.856,2.188-4.752c0.215,1.16,0.328,1.768,0.453,2.439c0.597,0.135,1.155,0.26,1.703,0.384
		c0.285,1.438,0.549,2.772,0.832,4.199c0-3.11,0-6.129,0-9.485c2.459,0,4.828,0.07,7.188-0.027c1.384-0.057,1.602,0.924,1.927,1.811
		c0.789,2.151,1.792,4.006,4.182,4.851c2.328,0.823,4.264,0.063,5.687-1.521c1.7-1.892,3.088-4.094,4.412-6.283
		c1.039-1.717,0.664-3.549-0.217-5.302c-5.371-10.692-5.174-21.698-1.292-32.679c1.821-5.151,5.289-9.242,10.909-10.766
		c3.322-0.9,8.107,1.543,9.644,4.822c0.575,1.227,0.885,2.577,1.056,3.976c-1.02-1.81-2.04-3.619-3.06-5.429
		c-0.088,0.063-0.177,0.124-0.266,0.188c0.583,2.961,1.474,5.901,1.668,8.888c0.219,3.36-0.138,6.766-0.357,10.144
		c-0.07,1.088-0.529,2.146-0.756,3.229c-0.771,3.688-3.481,5.948-6.153,8.165c-2.533,2.101-5.245,3.985-8.027,6.077
		c-1.185-1.521-2.431-3.12-3.676-4.719c-0.143,0.041-0.286,0.082-0.429,0.123c0.559,1.548,1.067,3.118,1.691,4.64
		c0.667,1.625,1.443,3.205,1.982,4.387c1.346-0.607,2.616-1.42,4.002-1.755c3.009-0.727,6.064-1.302,9.13-1.734
		c0.921-0.13,2.148,0.139,2.876,0.694c5.36,4.092,14.27,2.5,17.829-3.324c0.789-1.292,1.42-2.681,2.123-4.025
		c1.501-2.875,1.349-5.553-0.347-8.423c-2.711-4.589-3.121-9.745-2.862-14.96c0.399-8.057,1.186-16.077,3.185-23.906
		c1.273-4.989,3.039-9.793,6.245-13.989c3.442-4.505,7.725-5.45,13.014-4.037c6.168,1.649,9.991,7.206,9.781,12.835
		c-0.626-1.056-1.251-2.111-1.876-3.168c-0.094,0.002-0.187,0.004-0.281,0.006c0.068,0.438,0.082,0.893,0.212,1.311
		c1.439,4.62,1.641,9.365,1.044,14.099c-0.427,3.39-1.616,5.484-5.578,4.092c-1.505-0.529-2.792,0.008-3.271,1.647
		c-1.513,5.188-3.017,10.38-4.43,15.596c-0.849,3.133,0.646,5.555,3.168,7.001c2.738,1.569,5.712,2.938,8.757,3.708
		c3.577,0.905,6.175,3.136,8.911,5.242c3.417,2.632,4.903,2.478,7.368-1.065c2.665-3.832,2.211-9.02-1.125-11.917
		c-0.502,0.566-1.007,1.136-1.511,1.704c-0.077-0.031-0.155-0.063-0.232-0.095c0.149-0.355,0.313-0.706,0.445-1.068
		c1.809-4.948,3.863-9.827,5.292-14.884c0.535-1.896,0.155-4.471-0.732-6.283c-6.203-12.666-6.766-25.643-2.487-38.895
		c2.078-6.436,5.779-11.729,11.885-15.141c3.802-2.124,10.76-1.426,13.082,2.389c0.338,0.555,1.228,1.007,1.908,1.08
		c4.008,0.434,7.309,2.232,10.102,5.031c0.765,0.767,1.299,1.525,0.921,2.939c-0.242,0.908,0.835,2.169,1.32,3.271
		c-0.66,0.142-1.497,0.075-1.95,0.46c-3.686,3.132-4.816,7.274-4.222,11.898c0.318,2.483,2.772,3.311,4.763,1.759
		c2.63-2.051,3.489-4.915,3.088-8.043C330.932,376.485,330.072,374.482,329.479,372.446z M310.77,385.671
		c-0.184,0.049-0.368,0.098-0.551,0.146c-1.272,3.989-1.446,8.152-0.768,12.202c0.99,5.899,4.897,10.345,8.566,14.782
		c1.143,1.381,2.932,1.475,4.714,0.744c3.15-1.289,5.314-7.959,1.284-10.558c-4.589-2.96-7.946-7.29-10.557-12.122
		C312.532,389.151,311.664,387.403,310.77,385.671z M259.032,456.76c-1.367,2.794-2.959,6.234-4.716,9.591
		c-1.808,3.455-4.875,5.6-8.332,7.268C252.486,473.137,257.669,466.093,259.032,456.76z M331.894,366.219
		c0.457,0.771,4.257,2.353,6.098,2.228c-1.85-1.615-3.604-3.147-5.333-4.658C332.414,364.565,332.192,365.27,331.894,366.219z
		 M220.39,463.369c-0.758-0.594-1.382-1.083-2.071-1.622c-0.311,1.385-0.586,2.611-0.869,3.871
		C218.363,464.92,219.215,464.268,220.39,463.369z"/>
	<path fill-rule="evenodd" clip-rule="evenodd" d="M495.552,342.576c2.084-0.327,4.116-0.776,6.172-0.936
		c2.398-0.187,3.73-1.908,3.058-4.269c-0.288-1.012,0.65-2.152,1.502-2.334c0.567-1.216,0.84-2.243,1.441-3.015
		c2.968-3.803,5.842-7.704,9.096-11.252c3.699-4.031,8.36-5.396,13.82-2.894c2.689,1.232,4.381,3.228,5.091,6.424
		c1.992-1.719,3.618-3.317,5.44-4.647c2.466-1.798,4.92-3.775,7.688-4.943c2.03-0.856,4.653-1.04,6.841-0.624
		c3.354,0.638,5.771,5.078,4.421,8.329c-1.785,4.294-4.25,8.306-6.428,12.437c-0.143,0.272-0.326,0.521-0.258,1.051
		c0.812-0.616,1.685-1.168,2.426-1.861c3.979-3.718,7.871-7.534,11.908-11.188c2.47-2.236,5.111-4.288,7.756-6.318
		c0.692-0.531,1.668-0.871,2.54-0.934c0.693-0.05,1.553,0.315,2.078,0.787c0.195,0.175-0.229,1.257-0.578,1.789
		c-3.987,6.061-10.047,9.518-16.122,13.059c-4.254,2.48-8.199,5.496-12.238,8.337c-0.456,0.32-0.854,1.068-0.831,1.599
		c0.014,0.334,0.824,0.803,1.342,0.918c2.234,0.5,4.492,0.891,7.065,1.384c-0.958,1.147-1.776,2.128-2.594,3.107
		c0.095,0.146,0.189,0.292,0.283,0.438c1.01-0.699,2.256-1.218,2.967-2.146c0.784-1.025,1.566-1.422,2.786-1.405
		c3.284,0.043,6.571,0.015,9.853,0.015c-0.559,1.561-1.228,3.497,0.419,5.188c0.381,0.392,1.49,0.765,1.567,0.655
		c0.883-1.252,2.59-0.527,3.575-1.668c0.966-1.117,2.286-1.928,3.446-2.878c0.306-0.25,0.645-0.479,0.886-0.783
		c1.731-2.185,4.16-1.434,6.376-1.488c0.358-0.01,0.865,0.395,1.071,0.744c0.772,1.314,0.192,4.493-0.951,5.622
		c-3.247,3.203-6.488,6.412-9.751,9.598c-0.494,0.481-1.095,0.853-1.646,1.275c0.128,0.162,0.256,0.325,0.384,0.488
		c3.057-2.478,6.114-4.955,9.172-7.432c-3.393,4.82-8.106,8.365-12.299,12.417c0.13,0.16,0.261,0.32,0.392,0.479
		c4.86-3.917,9.722-7.834,14.607-11.771c-0.245,0.389-0.432,0.884-0.778,1.206c-5.019,4.657-9.871,9.521-15.175,13.831
		c-2.481,2.017-5.731,3.288-8.827,4.306c-6.703,2.203-11.833-1.25-12.814-8.229c-0.174-1.237-0.51-2.451-0.771-3.676
		c-0.236-0.062-0.472-0.124-0.707-0.186c-1.355,1.461-2.763,2.878-4.057,4.391c-3.006,3.516-6.893,5.554-11.332,6.336
		c-4.663,0.821-8.438-2.404-8.87-7.146c-0.121-1.324-0.314-2.642-0.476-3.962c-0.246-0.063-0.492-0.126-0.738-0.188
		c-0.851,1.093-1.723,2.17-2.546,3.282c-2.05,2.77-4.236,5.285-7.702,6.451c-3.817,1.285-7.311,0.48-9.6-2.846
		c-1.185-1.722-2.057-3.682-2.907-5.605c-1.217-2.752-1.959-3.112-4.677-1.958c-0.85,0.36-1.703,0.86-2.592,0.957
		c-4.56,0.495-7.699,3.323-10.879,6.235c-3.173,2.906-7.047,4.618-11.203,5.597c-6.081,1.431-12.427-1.061-16.138-6.396
		c-6.921-9.947-7.6-20.354-1.635-30.928c5.409-9.589,12.781-17.364,22.783-22.239c5.127-2.5,10.572-3.324,16.106-0.947
		c1.565,0.673,2.393,1.812,2.413,3.488c0.025,2.107,0.754,3.788,1.981,5.596c1.58,2.326,1.654,5.314,1.255,8.153
		c-0.143,1.015-0.648,1.982-0.752,2.996c-0.265,2.603-1.293,4.477-4.09,4.953c-0.251,0.042-0.548,0.151-0.709,0.331
		c-0.495,0.553-0.934,1.155-1.395,1.738c0.55,0.41,1.046,1.028,1.66,1.186C495.319,340.955,496.295,341.18,495.552,342.576z
		 M475,342.566c-0.24-0.038-0.48-0.075-0.722-0.113c-0.469,0.814-1.079,1.581-1.376,2.453c-0.522,1.536-0.954,3.12-1.22,4.718
		c-0.122,0.732,0.008,1.755,0.459,2.247c0.291,0.316,1.603,0.164,2.046-0.235c0.651-0.586,1.202-1.543,1.318-2.407
		c0.209-1.548,0.116-3.146,0.037-4.718C475.511,343.855,475.19,343.214,475,342.566z M531.162,326.123
		c-2.351,2.536-4.744,5.029-7.034,7.613c-2.214,2.501-4.322,5.095-6.478,7.647c0.148,0.125,0.297,0.25,0.445,0.376
		C523.968,335.088,529.875,330.24,531.162,326.123z M453.554,340.933c-0.966,4.992-1.21,9.749,0.716,14.438
		C454.034,350.631,453.8,345.891,453.554,340.933z M532.256,320.076c0,2.892,0,5.324,0,7.558
		C535.007,325.494,535.182,323.529,532.256,320.076z M534.706,340.323c0.188,0.16,0.376,0.32,0.563,0.479
		c1.136-1.285,2.271-2.571,3.405-3.856c-0.135-0.12-0.269-0.24-0.404-0.36C537.083,337.832,535.894,339.078,534.706,340.323z"/>
	<path fill-rule="evenodd" clip-rule="evenodd" d="M212.327,386.697c6.603-0.216,11.272,4.403,12.068,10.502
		c0.437,3.347,0.113,6.438-1.636,9.301c-2.286,3.743-7.943,6.271-12.174,5.385c-4.675-0.978-6.92-4.342-7.845-8.695
		c-1.17-5.504-0.135-10.527,4.061-14.514C208.379,387.176,210.356,386.178,212.327,386.697z M217.814,408.171
		c4.766-1.255,7.026-8.302,4.039-11.994C222.263,400.758,222.313,405.204,217.814,408.171z"/>
	<path fill-rule="evenodd" clip-rule="evenodd" d="M448.199,288.083c-1.115,4.642,0.067,8.942,1.627,13.289
		c1.563,4.354,3.415,8.282,8.69,9.915c-2.21,0.899-3.821,0.614-5.303-0.366c-0.814-0.539-1.703-1.163-2.188-1.972
		c-3.899-6.491-6.493-13.292-4.471-21.054c0.71-2.724,2.698-4.482,4.796-6.073c1.348-1.022,4.118-0.056,5.218,1.764
		c2.226,3.682,3.742,7.677,4.218,11.943c0.278,2.495,0.099,5.065-0.114,7.581c-0.166,1.964-1.51,3.511-3.418,3.402
		c-1.32-0.076-2.997-1.102-3.776-2.219c-3.17-4.543-4.954-9.655-5.204-15.244C448.259,288.728,448.225,288.405,448.199,288.083z"/>
	<path fill-rule="evenodd" clip-rule="evenodd" d="M430.594,299.442c0,7.75,0,15.499,0,23.249c-0.12,0.094-0.24,0.187-0.36,0.28
		c-0.328-0.466-0.86-0.896-0.945-1.403c-0.285-1.683-0.561-3.393-0.565-5.093c-0.014-4.801,0.06-9.604,0.219-14.401
		c0.031-0.944,0.603-1.87,0.925-2.804C430.109,299.328,430.352,299.385,430.594,299.442z"/>
	<path fill-rule="evenodd" clip-rule="evenodd" d="M263.852,431.607c0.205-2.396,0.18-4.84,0.67-7.177
		c0.674-3.216,1.652-6.379,2.694-9.5c0.266-0.798,1.264-1.888,1.923-1.885c0.876,0.003,1.756,0.933,2.615,1.493
		c0.141,0.092,0.305,0.418,0.254,0.49c-1.07,1.494,0.743,1.48,1.373,2.539c-1.199,0-2.263,0.246-3.141-0.053
		c-1.656-0.565-2.273,0.066-2.648,1.558c-0.529,2.104-1.234,4.163-1.753,6.27c-0.514,2.087-0.89,4.208-1.326,6.314
		C264.294,431.641,264.073,431.624,263.852,431.607z"/>
	<path fill-rule="evenodd" clip-rule="evenodd" d="M431.424,306.424c0-3.692,0-7.002,0-10.36
		C437.653,299.835,436.848,301.576,431.424,306.424z"/>
</svg>
