<svg  fill="currentColor" viewBox="0 0 595.28 595.28" >
	<path fill-rule="evenodd" clip-rule="evenodd" d="M1.396,526.929c9.026,0,18.053,0,27.242,0
		c-0.064-0.775-0.01-1.245-0.152-1.645c-1.193-3.354-2.241-6.777-3.677-10.026c-3.298-7.46-4.565-15.408-5.819-23.348
		c-0.925-5.853-1.632-11.75-2.164-17.652c-0.438-4.852-0.548-9.737-0.679-14.61c-0.52-19.325,1.993-38.332,6.343-57.107
		c1.742-7.518,3.691-15.007,5.989-22.37c7.336-23.504,17.09-45.992,28.765-67.671c8.178-15.185,16.868-30.068,26.571-44.314
		c9.808-14.398,19.94-28.582,30.186-42.674c5.468-7.52,11.307-14.79,17.276-21.922c12.692-15.165,25.291-30.423,38.472-45.158
		c11.686-13.063,24.039-25.535,36.232-38.138c5.808-6.002,11.77-11.875,17.948-17.493c7.393-6.722,15.012-13.203,22.681-19.611
		c6.744-5.635,13.536-11.235,20.587-16.474c9.924-7.373,19.839-14.818,30.254-21.453c10.89-6.938,22.264-13.144,33.618-19.319
		c12.832-6.98,26.273-12.685,40.271-16.873c8.695-2.602,17.549-4.793,26.456-6.524c5.488-1.066,11.222-1.339,16.827-1.214
		c8.329,0.185,16.477,1.785,24.043,5.524c0.94,0.465,1.622,1.455,2.737,2.493c-2.407,0.437-3.122,1.536-2.464,2.823
		c-1.812,2.967-3.393,5.594-5.011,8.198c-1.633,2.627-3.028,5.47-5.033,7.778c-1.91,2.198-4.373,3.973-6.778,5.669
		c-2.575,1.816-2.644,2.895,0.049,4.584c2.838,1.782,5.893,3.333,8.399,5.509c6.975,6.055,9.614,14.353,11.002,23.115
		c2.151,13.58,1.414,27.109-1.05,40.583c-0.391,2.142-0.802,4.285-1.071,6.443c-0.066,0.532,0.387,1.129,0.601,1.696
		c0.509-0.22,1.193-0.3,1.494-0.684c1.303-1.656,2.49-3.402,3.725-5.113c5.971-8.279,13.383-14.869,22.635-19.298
		c0.474-0.227,0.97-0.416,1.47-0.573c1.387-0.437,2.781-0.847,4.126-1.522c1.579,0.378,1.493,1.958,1.353,3.21
		c-0.763,6.797-1.3,13.655-2.652,20.343c-1.603,7.926-3.759,15.758-6.055,23.519c-1.488,5.032-3.457,9.949-5.566,14.762
		c-2.982,6.807-6.089,13.578-9.517,20.168c-4.009,7.706-8.388,15.222-12.671,22.783c-2.372,4.187-4.771,8.365-7.35,12.426
		c-3.989,6.284-7.978,12.58-12.269,18.658c-5.929,8.399-11.886,16.802-18.295,24.833c-7.535,9.443-15.502,18.547-23.407,27.689
		c-4.533,5.244-9.24,10.344-14.009,15.377c-4.84,5.109-9.719,10.196-14.816,15.044c-8.521,8.104-17.195,16.048-25.878,23.979
		c-3.478,3.176-7.054,6.259-10.754,9.169c-5.449,4.285-11.036,8.396-16.592,12.544c-3.854,2.878-7.699,5.777-11.657,8.507
		c-2.363,1.63-4.94,2.947-7.417,4.411c-6.494,3.841-13.447,6.657-20.723,8.489c-10.466,2.636-20.194,0.493-28.953-5.715
		c-3.216-2.279-6.548-4.625-9.087-7.577c-3.649-4.243-6.245-9.227-7.778-14.738c-2.371-8.521-1.986-16.91,0.257-25.391
		c4.012-15.165,12.091-28.165,21.388-40.488c6.267-8.306,12.61-16.584,19.415-24.447c6.757-7.809,14.011-15.203,21.276-22.552
		c6.01-6.081,12.268-11.925,18.576-17.7c5.439-4.979,10.965-9.914,17.68-13.188c6.178-3.012,13.22-1.55,17.911,3.642
		c0.522,0.577,1.149,1.058,2.031,1.859c2.229-2.394,4.433-4.713,6.586-7.08c13.156-14.457,25.212-29.8,36.077-46.031
		c7.447-11.125,14.663-22.439,21.321-34.049c6.176-10.768,11.22-22.157,13.963-34.37c0.864-3.843,1.227-7.813,1.595-11.746
		c0.122-1.317-0.279-2.761-0.737-4.04c-1.153-3.215-2.324-3.915-5.784-4.007c-3.673-0.098-7.088,0.665-10.596,1.908
		c-7.014,2.486-13.625,5.728-19.852,9.686c-7.375,4.689-14.688,9.521-21.69,14.743c-8.02,5.981-15.785,12.32-23.437,18.771
		c-5.006,4.22-9.596,8.932-14.405,13.388c-3.271,3.032-6.619,5.979-9.89,9.012c-1.096,1.015-2.015,2.217-3.084,3.263
		c-3.348,3.274-6.802,6.441-10.081,9.783c-5.403,5.508-10.713,11.108-16.038,16.692c-3.53,3.702-7.093,7.375-10.506,11.183
		c-6.212,6.93-12.375,13.907-18.458,20.951c-3.39,3.924-6.585,8.016-9.856,12.042c-4.685,5.765-9.471,11.451-14.01,17.328
		c-5.743,7.436-11.473,14.896-16.863,22.588c-7.552,10.777-14.895,21.706-22.118,32.708c-4.442,6.766-8.519,13.773-12.711,20.702
		c-4.328,7.152-8.814,14.221-12.837,21.543c-4.944,8.998-9.637,18.145-14.142,27.371c-3.488,7.145-6.914,14.367-9.645,21.819
		c-2.872,7.838-5.165,15.921-7.188,24.028c-1.75,7.013-2.784,14.207-4.103,21.327c-0.514,2.777-0.698,2.909-3.328,2.143
		c-0.476-0.139-1.034,0.007-1.554,0.019c-3.529,0.083-6.533-0.798-8.852-3.8c-4.308-5.577-6.171-12.035-6.344-18.825
		c-0.229-9.073,0.247-18.164,0.388-27.248c0.008-0.534-0.27-1.073-0.415-1.61c-0.498,0.331-1.202,0.55-1.456,1.015
		c-0.852,1.56-1.624,3.175-2.282,4.826c-3.4,8.533-5.819,17.339-7.409,26.391c-2.433,13.841-3.239,27.788-2.765,41.806
		c0.583,17.233,2.803,34.217,8.936,50.459c2.21,5.853,4.841,11.55,8.793,16.516c1.637,2.058,3.118,4.24,4.775,6.28
		c6.731,8.287,15.205,14.137,25.212,17.777c3.713,1.352,7.41,2.821,11.228,3.786c2.643,0.667,5.477,0.701,8.23,0.76
		c2.752,0.059,4.75-1.395,5.382-4.087c1.737-7.407,3.139-14.852,0.831-22.435c-0.36-1.184-0.343-2.478-0.605-3.697
		c-0.37-1.725,0.504-1.993,1.871-1.688c9.854,2.2,19.854,2.951,29.884,2.204c14.35-1.067,28.275-4.352,41.841-9.126
		c12.648-4.451,24.832-9.989,36.621-16.336c7.061-3.801,13.958-7.942,20.71-12.271c9.902-6.35,19.801-12.738,29.345-19.605
		c9.171-6.599,17.943-13.759,26.786-20.804c6.713-5.348,13.385-10.76,19.852-16.4c8.547-7.456,16.933-15.101,25.279-22.782
		c7.119-6.553,14.114-13.242,21.105-19.933c3.718-3.557,7.279-7.274,10.975-10.854c1.344-1.303,1.77-2.741,1.237-4.479
		c-0.947-3.093-1.975-6.161-2.87-9.268c-0.361-1.254-0.463-2.583-0.682-3.877c0.277-0.113,0.556-0.226,0.833-0.338
		c0.485,0.733,1.144,1.406,1.427,2.211c1.357,3.862,2.613,7.761,3.95,11.78c1.889-1.302,0.253-2.983,0.558-4.556
		c2.583,1.131,4.344,3.112,5.893,5.291c1.938,2.729,2.714,3.128,5.98,2.357c1.968-0.464,3.892-1.115,6.147-1.773
		c1.194,5.152,2.364,10.108,3.488,15.075c0.706,3.12,1.498,6.233,1.962,9.393c0.4,2.728-0.737,3.61-3.45,3.14
		c-0.813-0.142-1.633-0.25-2.621-0.399c1.258,2.229,3.709,3.151,5.826,2.395c2.008-0.716,2.871-2.708,2.255-5.467
		c-0.791-3.543-1.684-7.062-2.482-10.602c-0.521-2.311-0.955-4.641-1.119-7.052c0.32,1.125,0.682,2.24,0.953,3.376
		c1.015,4.235,2.041,8.469,2.973,12.723c0.279,1.275,0.384,2.618,0.36,3.926c-0.045,2.511-1.311,3.742-3.789,3.904
		c-0.132,0.009-0.264,0.012-0.396,0.013c-1.442,0.019-3.25-0.481-4.219,0.205c-0.909,0.644-0.737,2.644-1.39,3.861
		c-0.83,1.55-1.881,3.029-3.062,4.337c-9.858,10.913-19.718,21.827-29.682,32.645c-7.063,7.667-14.131,15.339-21.478,22.729
		c-11.065,11.132-22.149,22.265-33.665,32.924c-7.433,6.88-15.528,13.072-23.562,19.268c-4.88,3.764-10.14,7.056-15.357,10.355
		c-3.854,2.437-7.985,1.963-12.002,0.24c-1.495-0.642-2.389-2.785-1.617-4.63c1.52-3.634,3.475-7.084,5.016-10.709
		c1.076-2.529,1.795-5.215,2.589-7.856c0.12-0.4-0.076-1.166-0.378-1.352c-0.336-0.205-1.075-0.103-1.438,0.152
		c-1.129,0.793-2.232,1.651-3.225,2.609c-7.311,7.061-14.668,14.078-20.881,22.178c-2.217,2.891-3.166,6.174-3.43,9.735
		c-0.106,1.438,0.713,2.045,1.917,2.321c2.573,0.59,5.152,1.156,7.735,1.703c8.84,1.873,17.198,5.03,25.239,9.147
		c9.858,5.047,20.3,7.814,31.467,7.382c0.264-0.01,0.544,0.035,0.789-0.036c0.896-0.264,1.781-0.564,2.67-0.853
		c-0.698-0.607-1.311-1.381-2.109-1.797c-5.434-2.823-9.34-6.784-10.403-13.1c-0.255-1.511,0.168-2.109,1.619-2.159
		c0.923-0.032,1.844-0.146,2.766-0.146c29.251-0.005,58.501-0.003,87.752,0.013c0.963,0,1.926,0.149,2.889,0.229
		c0.064,0.189,0.129,0.378,0.192,0.566c-1.984,1.183-3.967,2.369-5.955,3.546c-5.102,3.022-10.231,6-15.291,9.09
		c-1.276,0.78-2.4,1.851-3.478,2.907c-1.479,1.453-1.204,2.602,0.876,3.012c2.58,0.509,5.22,0.845,7.847,0.963
		c5.866,0.264,11.74,0.354,17.61,0.498c2.164,0.053,4.353-0.114,6.482,0.17c0.765,0.102,1.882,1.156,1.998,1.906
		c0.496,3.188,0.746,6.422,0.954,9.647c0.236,3.657-0.381,4.45-3.843,5.517c-0.293,0.09-0.557,0.271-1.277,0.634
		c1.037,0.162,1.617,0.253,2.744,0.429c-1.234,0.329-1.958,0.631-2.704,0.7c-1.771,0.164-3.554,0.306-5.331,0.306
		c-61.54,0.015-123.079,0.03-184.618-0.033c-3.636-0.004-6.873,0.64-10.169,2.29c-11.872,5.944-24.142,11.005-36.764,15.127
		c-5.766,1.882-11.733,3.141-17.572,4.813c-11.302,3.235-22.872,4.301-34.565,4.879c-13.069,0.646-26.008-0.313-38.81-2.672
		c-5.727-1.055-11.199-3.431-16.847-4.987c-8.232-2.269-15.542-6.574-23.09-10.319c-3.136-1.556-5.962-3.85-8.674-6.112
		c-2.292-1.911-4.598-3.031-7.668-3.014c-15.913,0.094-31.826,0.083-47.739-0.008c-2.129-0.012-4.254-0.679-6.381-1.042
		C1.396,553.077,1.396,540.003,1.396,526.929z M415.869,387.35c0.702-0.104,0.909-0.099,1.084-0.17
		c0.241-0.1,0.477-0.234,0.684-0.395c4.397-3.402,7.332-7.88,9.462-12.94c0.125-0.297,0.159-0.643,0.182-0.969
		c0.108-1.635-0.58-2.239-2.137-1.771c-2.316,0.696-4.182,2.059-5.162,4.304c-1.373,3.145-2.622,6.346-3.848,9.551
		C415.881,385.62,415.963,386.409,415.869,387.35z M381.739,428.646c-8.389,5.169-16.177,11.041-22.437,18.731
		C367.829,442.388,375.3,436.131,381.739,428.646z M321.208,479.691c6.208-3.455,12.19-7.199,16.975-12.547
		C331.849,470.416,326.137,474.529,321.208,479.691z"/>
</svg>
