<svg viewBox="0 0 99 98" ><g fill="none" fill-rule="evenodd"><ellipse cx="49.45" cy="48.75" fill="#03ef62" rx="49.45" ry="48.75"></ellipse><g fill="#05192d" fill-rule="nonzero"><path d="M49.4 15.6a24.66 24.66 0 0 0-24.7 24.62v.32a24.6 24.6 0 0 0 12 20.8l.05.04V71.5H62.1V61.34l.16-.1A24.59 24.59 0 0 0 74.1 40.23 24.66 24.66 0 0 0 49.4 15.6zm0 6.5c10.05 0 18.2 8.12 18.2 18.12A18.09 18.09 0 0 1 57.42 56.5l-1.82.89V65H43.25v-7.6l-1.83-.88A18.11 18.11 0 0 1 49.4 22.1zm10.66 53.63-3.75 6.5H42.49l-3.75-6.5h21.32z"></path><path d="m50.2 30.35-1.82 7.03h9.06l-3.37 14.17H47.4l1.83-7.67h-9.24l3.5-13.53z"></path></g></g></svg>
