<svg fill="currentColor" fill-rule="evenodd" viewBox="0 0 22 23" ><path d="M21.78 7.91a5.41 5.41 0 0 0-.31-1.74c-.2-.55-.5-1.06-.84-1.53a7.87 7.87 0 0 0-2.64-2.17 11 11 0 0 0-3.2-1.07 13.7 13.7 0 0 0-6.53.48 11.96 11.96 0 0 0-2.88 1.36 7.88 7.88 0 0 0-2.19 2.08c-.55.8-.85 1.7-.85 2.6 0 .89.3 1.78.85 2.58s1.31 1.51 2.19 2.09a11.88 11.88 0 0 0 2.88 1.36 13.74 13.74 0 0 0 6.54.47c1.1-.2 2.18-.54 3.19-1.07 1-.53 1.93-1.25 2.64-2.17.34-.47.65-.98.84-1.53a5.4 5.4 0 0 0 .31-1.74m0 0c0 1.19-.41 2.36-1.09 3.32a9.1 9.1 0 0 1-2.54 2.4 13.14 13.14 0 0 1-3.2 1.5 15.01 15.01 0 0 1-3.48.65c-2.36.15-4.85-.2-7.09-1.38a9.02 9.02 0 0 1-3-2.5 7 7 0 0 1-1-1.84A6.66 6.66 0 0 1 0 7.9a6.64 6.64 0 0 1 1.38-4 8.21 8.21 0 0 1 1.4-1.43 9.63 9.63 0 0 1 1.6-1.06 13.23 13.23 0 0 1 7.1-1.39c1.18.1 2.35.3 3.48.67a13.15 13.15 0 0 1 3.19 1.48 9.07 9.07 0 0 1 2.54 2.41 5.82 5.82 0 0 1 1.1 3.32"></path><path d="M13.84 12.79c1.44 0 2.32-.83 2.32-2.43 0-1.73-.88-2.23-2.32-2.23h-1.65v4.66h1.65zm-.39 2.88h-1.23v6.71H8.59V5.14h5.95c2.88 0 5.5 1.04 5.5 4.93 0 2.32-1.2 4-3 4.88l4.32 7.43h-4.04l-3.87-6.71z"></path></svg>
