<svg height="1444" viewBox="0 0 3080 1444" width="3080" xmlns="http://www.w3.org/2000/svg" xmlns:xlink="http://www.w3.org/1999/xlink"><mask id="a" fill="#fff"><path d="m0 1444h3080v-1444h-3080z" fill="#fff" fill-rule="evenodd"/></mask><g fill="none" fill-rule="evenodd" mask="url(#a)"><g transform="translate(4 -394)"><path d="m1192 1642h704v311h-704z" fill="#7933ff" transform="matrix(.8660254 -.5 .5 .8660254 -691.893223 1012.819337)"/><path d="m1666.59094 1624.56441h704v111h-704z" fill="#06bdfc" transform="matrix(.8660254 -.5 .5 .8660254 -569.592299 1234.381422)"/><g fill="none"><g transform="translate(2000 294)"><path d="m-47.838205 276.25h1131v111h-1131z" fill="#06bdfc" transform="matrix(.8660254 -.5 .5 .8660254 -96.52147 303.27697)"/><path d="m-9.96256 383.73334h1103v35h-1103z" fill="#60e7ff" transform="matrix(.8660254 -.5 -.5 -.8660254 273.16893 1019.480325)"/></g><g transform="matrix(-.8660254 .5 -.5 -.8660254 1106.256696 1310.187477)"><circle cx="193.824" cy="97.056" fill="#06bdfc" r="97.056"/><circle cx="97.056" cy="97.056" fill="#7933ff" r="97.056"/><path d="m145.441584 12.9021428c29.088625 16.7610752 48.670416 48.17068 48.670416 84.1538572 0 35.983177-19.581791 67.392782-48.670416 84.153857-29.091346-16.760357-48.673584-48.170269-48.673584-84.153857 0-35.9137076 19.506254-67.2714854 48.502045-84.056616z" fill="#60e7ff"/></g><g><path d="m791.587674 245h1060v311h-1060z" fill="#7933ff" transform="matrix(.8660254 -.5 .5 .8660254 -23.190825 714.450663)"/><path d="m886.11301 564.70156h929v35h-929z" fill="#60e7ff" transform="matrix(.8660254 -.5 -.5 -.8660254 472.048613 1761.709406)"/><g fill="#06bdfc"><path d="m-63.041559 1067.95156h1084v35h-1084z" transform="matrix(-.8660254 .5 -.5 -.8660254 1436.474398 1786.000965)"/><path d="m897.899001 572.25h1019v35h-1019z" transform="matrix(.8660254 -.5 -.5 -.8660254 483.430713 1804.187982)"/></g></g></g></g></g></svg>