<svg fill="currentColor" ><path d="M5.904 11.375l5.25-3.045-5.25-3.08v6.125zm1.963-8.75c.983 0 1.932.013 2.849.04a56.45 56.45 0 012.015.086l.64.036.149.015c.094.009.161.017.202.026l.207.041c.096.018.18.042.25.072.07.03.152.07.246.117.093.048.183.108.272.176.148.117.279.254.391.407.055.074.14.251.254.528.113.276.192.58.232.911a28.771 28.771 0 01.159 2.258v1.587c.005.875-.047 1.75-.158 2.619-.04.33-.114.63-.22.898-.104.267-.199.453-.281.554l-.123.154c-.082.09-.166.171-.254.24-.088.07-.179.126-.272.17-.081.04-.163.078-.246.114-.08.033-.165.057-.25.072l-.21.04a5.053 5.053 0 01-.347.042c-1.47.114-3.305.171-5.505.171a158.147 158.147 0 01-3.157-.059 64.523 64.523 0 01-1.76-.067l-.43-.036-.316-.036c-.161-.02-.32-.05-.478-.09a2.677 2.677 0 01-.448-.19 1.777 1.777 0 01-.633-.538c-.055-.074-.14-.25-.254-.528a3.538 3.538 0 01-.233-.911c-.05-.41-.086-.822-.11-1.234C.027 9.97.01 9.628 0 9.286V7.7a19.95 19.95 0 01.158-2.619c.041-.33.114-.63.22-.898.104-.267.199-.453.281-.554l.123-.155c.082-.091.166-.172.254-.24.088-.07.179-.129.272-.176.094-.049.175-.087.246-.117.08-.034.165-.058.25-.073.097-.017.166-.031.207-.04.041-.01.108-.018.201-.027l.15-.014c1.47-.108 3.304-.162 5.505-.162z"></path></svg>
