<svg viewBox="0 0 16 16">
    <path fill="currentColor" d="M15.25 12H15V8.25c0-.96-.79-1.75-1.75-1.75H9V4h.25c.41 0 .75-.34.75-.75V.75A.75.75 0 009.25 0h-2.5A.75.75 0 006 .75v2.5c0 .41.34.75.75.75H7v2.5H2.75C1.78 6.5 1 7.29 1 8.25V12H.75a.75.75 0 00-.75.75v2.5c0 .41.34.75.75.75h2.5c.41 0 .75-.34.75-.75v-2.5a.75.75 0 00-.75-.75H3V8.5h4V12h-.25a.75.75 0 00-.75.75v2.5c0 .41.34.75.75.75h2.5c.41 0 .75-.34.75-.75v-2.5a.75.75 0 00-.75-.75H9V8.5h4V12h-.25a.75.75 0 00-.75.75v2.5c0 .41.34.75.75.75h2.5c.41 0 .75-.34.75-.75v-2.5a.75.75 0 00-.75-.75zM3 15H1v-2h2v2zm6 0H7v-2h2v2zM7 3V1h2v2H7zm8 12h-2v-2h2v2z"/>
</svg>