<svg viewBox="0 0 81 32" ><mask id="excel-two_svg__a" fill="#fff"><path d="M.24.08h1.73v15.88H.24z" fill-rule="evenodd"></path></mask><mask id="excel-two_svg__b" fill="#fff"><path d="M2.4.18 3.9 2.5c.39.6.71 1.13 1.06 1.76h.07c.34-.65.7-1.2 1.06-1.79L7.55.2h2.08L6.04 5.4l3.67 5.58H7.54L6 8.55c-.41-.62-.76-1.23-1.13-1.87H4.8c-.34.64-.71 1.22-1.1 1.87l-1.53 2.43H.07l3.74-5.5L.26.18z" fill-rule="evenodd"></path></mask><mask id="excel-two_svg__c" fill="#fff"><path d="M8.85 11.16c-1.01.43-2.1.65-3.2.63C2.3 11.8.12 9.55.12 6.2.12 2.81 2.47.31 6.09.31 7.06.3 8.02.5 8.9.9l-.45 1.52a5 5 0 0 0-2.35-.52c-2.55 0-3.91 1.88-3.91 4.16 0 2.54 1.65 4.11 3.85 4.11.86.01 1.7-.17 2.48-.52z" fill-rule="evenodd"></path></mask><mask id="excel-two_svg__d" fill="#fff"><path d="M2.02 6.43c.04 2.69 1.73 3.8 3.72 3.8a7.08 7.08 0 0 0 3.03-.55l.36 1.43c-1.16.5-2.4.73-3.66.7C2.13 11.81.1 9.57.1 6.27S2.05.33 5.24.33c3.57 0 4.5 3.16 4.5 5.19 0 .3-.03.62-.08.93zM7.82 5c.02-1.27-.52-3.25-2.73-3.25-2.04 0-2.9 1.86-3.05 3.25z" fill-rule="evenodd"></path></mask><mask id="excel-two_svg__e" fill="#fff"><path d="M8.13 8h-6v5.35h6.71v1.6H.11V.13H8.5v1.6H2.13v4.7h6z" fill-rule="evenodd"></path></mask><g fill="currentColor"><path d="M19.24 0v2.89l10.97-.01c.62.02 1.3-.02 1.84.34.37.54.33 1.21.36 1.83-.02 6.26-.02 12.52-.01 18.78-.02 1.05.1 2.12-.13 3.16-.14.75-1.06.76-1.67.79H19.24v3.25h-2.27c-5.56-1-11.14-1.93-16.72-2.9V2.9L11.47.97l5.6-.97zM31.3 3.97H19.24v2.16h2.92v2.53h-2.92v1.44h2.92v2.53h-2.92v1.44h2.92v2.52h-2.92v1.45h2.92v2.52h-2.92v1.45h2.92v2.52h-2.92v2.17H31.3zM28.74 22v2.52h-5.11v-2.52zM13.56 9.37l-2.49.14c-.61 1.49-1.33 2.93-1.82 4.46-.45-1.45-1.04-2.84-1.59-4.25l-2.4.14C6.1 11.7 7 13.53 7.82 15.39c-.97 1.8-1.88 3.63-2.82 5.44.8.04 1.6.07 2.4.08.57-1.44 1.28-2.82 1.78-4.28.44 1.57 1.2 3.02 1.82 4.53l2.64.16c-1-2.02-2.04-4.02-3.04-6.04 1-1.97 1.97-3.94 2.95-5.92zm15.18 8.67v2.52h-5.11v-2.52zm0-3.97v2.53h-5.11v-2.53zm0-3.97v2.53h-5.11V10.1zm0-3.97v2.53h-5.11V6.13z"></path><path d="M-1.42-1.83h5.05v19.7h-5.05z" mask="url(#excel-two_svg__a)" transform="translate(79 7)"></path><path d="M-1.77-1.72h13.34v14.57H-1.77z" mask="url(#excel-two_svg__b)" transform="translate(47 12)"></path><path d="M-1.84-1.62h12.7v15.35h-12.7z" mask="url(#excel-two_svg__c)" transform="translate(57 11)"></path><path d="M-1.83-1.62h13.5v15.35h-13.5z" mask="url(#excel-two_svg__d)" transform="translate(67 11)"></path><path d="M-1.85-1.76H10.8v18.59H-1.85z" mask="url(#excel-two_svg__e)" transform="translate(38 8)"></path></g></svg>
