<svg fill="currentColor" viewBox="0 0 1000 1000" enable-background="new 0 0 1000 1000" xml:space="preserve">
<g><path d="M690.6,433.6h-27.8l-21.8,81.5H661c21.5,0,37.9-4.1,48.7-12.1c10.9-8.1,18-18.6,21.6-32.1c3.4-12.6,2.2-21.7-3.5-27.7C721.8,436.9,708.9,433.6,690.6,433.6z"/><path d="M351.4,433.6h-27.8l-21.8,81.5h20c21.5,0,37.9-4.1,48.7-12.1c10.9-8.1,18-18.6,21.6-32.1c3.4-12.6,2.2-21.7-3.5-27.7C382.6,436.9,369.7,433.6,351.4,433.6z"/><path d="M500,241.6C229.4,241.6,10,357.3,10,500c0,142.7,219.4,258.4,490,258.4c270.6,0,490-115.7,490-258.4C990,357.3,770.6,241.6,500,241.6z M393.8,529.3c-19.9,14.3-44.4,21.5-73,21.5h-28.5l-22.9,85.5h-40.5l63.9-238.5h67.1c31.3,0,52.3,6.7,64.3,20.5c12,13.8,15.1,32.3,9,55C427,496.1,413.7,515,393.8,529.3z M559.5,444.6c-1.9-3.5-15-7.6-29-7.6l-36.8,0l-34.4,128.3h-39l66.6-248.5h39l-22.4,83.6c10.6-0.1,29.4-0.3,42.7-0.3c19,0,41.9,6,49.9,19.4c7.4,12.4,8.2,29.9,2.2,52.2l-25.1,93.7h-39l21.8-81.2C563.1,457.3,561.2,447.8,559.5,444.6z M772.3,473.3c-6.1,22.8-19.4,41.7-39.3,56c-19.9,14.3-44.4,21.5-73,21.5h-28.5l-22.9,85.5H568l63.9-238.5H699c31.3,0,52.3,6.7,64.3,20.5C775.4,432.1,778.4,450.6,772.3,473.3z"/></g>
</svg>