<svg viewBox="0 0 59 20" fill="currentColor" fill-rule="evenodd"><path d="M9.81 15.64a36.88 36.88 0 0 1-7.25-.63A8.28 8.28 0 0 1 0 14.13v3.55c0 1.18 4.4 2.14 9.81 2.14 5.42 0 9.81-.96 9.81-2.14v-3.54a8.28 8.28 0 0 1-2.55.87 36.88 36.88 0 0 1-7.26.63m0-5.59a36.88 36.88 0 0 1-7.25-.63A8.28 8.28 0 0 1 0 8.55v3.42h.06c0 .6 3.43 1.76 9.75 1.76 6.33 0 9.75-1.17 9.75-1.77h.06v-3.4c-.8.42-1.67.72-2.56.87a36.86 36.86 0 0 1-7.25.62m9.81-7.91C19.62.96 15.22 0 9.82 0S0 .96 0 2.14a.47.47 0 0 0 0 .07.47.47 0 0 0 0 .07v3.88h.06c0 .6 3.43 1.76 9.75 1.76 6.33 0 9.75-1.17 9.75-1.77h.06V2.27a.47.47 0 0 0 0-.07.5.5 0 0 0 0-.06m14.27 3.52a.67.67 0 0 1-.23.28.56.56 0 0 1-.3.08.76.76 0 0 1-.4-.14 13.25 13.25 0 0 0-.52-.31 4.24 4.24 0 0 0-.7-.32 2.9 2.9 0 0 0-.96-.14c-.33 0-.62.04-.86.12a1.81 1.81 0 0 0-.62.34 1.36 1.36 0 0 0-.38.53 1.76 1.76 0 0 0-.13.67c0 .3.09.56.26.77.17.2.39.38.67.53.27.14.6.27.94.39.36.11.72.23 1.09.37.37.13.73.28 1.09.45.35.17.67.39.94.65a3 3 0 0 1 .67.97c.17.38.26.85.26 1.4 0 .59-.1 1.14-.3 1.66-.2.52-.49.97-.87 1.36a4.08 4.08 0 0 1-1.4.9 5.84 5.84 0 0 1-3.1.2 6.2 6.2 0 0 1-1.13-.33 5.88 5.88 0 0 1-1.02-.55 5.07 5.07 0 0 1-.84-.71l.69-1.17a.89.89 0 0 1 .23-.22.56.56 0 0 1 .31-.08c.15 0 .3.06.48.18l.6.42c.24.15.51.29.83.41.31.13.7.19 1.14.19.68 0 1.2-.17 1.57-.5.38-.33.56-.8.56-1.42 0-.35-.08-.63-.25-.85a2.05 2.05 0 0 0-.67-.55 4.93 4.93 0 0 0-.95-.37 30.59 30.59 0 0 1-1.08-.34 9.2 9.2 0 0 1-1.08-.44 3.48 3.48 0 0 1-.95-.66 3.02 3.02 0 0 1-.67-1.02 4 4 0 0 1-.25-1.52 3.67 3.67 0 0 1 1.1-2.6 4.01 4.01 0 0 1 1.31-.85 5.83 5.83 0 0 1 3.87.05 4.7 4.7 0 0 1 1.63 1.01l-.58 1.16zm12.48 4.18c0-.72-.09-1.37-.27-1.94a4.13 4.13 0 0 0-.8-1.46 3.46 3.46 0 0 0-1.28-.92 4.28 4.28 0 0 0-1.69-.32c-.62 0-1.19.1-1.69.32a3.49 3.49 0 0 0-1.28.92 4.15 4.15 0 0 0-.8 1.46 6.15 6.15 0 0 0-.3 1.94c0 .72.1 1.37.3 1.94.18.57.45 1.06.8 1.46.35.4.78.7 1.28.9.5.22 1.07.33 1.7.33.62 0 1.18-.1 1.68-.32a3.48 3.48 0 0 0 1.27-.91c.35-.4.62-.89.8-1.46.2-.57.28-1.22.28-1.94m2.45 0c0 .59-.06 1.15-.18 1.69a7.02 7.02 0 0 1-.5 1.5 6.3 6.3 0 0 1-.82 1.29 5.84 5.84 0 0 1-1.09 1.03l3.25 3.64h-1.96c-.29 0-.54-.04-.77-.12a1.5 1.5 0 0 1-.62-.44l-1.88-2.13c-.3.09-.61.15-.93.2a7.4 7.4 0 0 1-.99.06 6.8 6.8 0 0 1-2.65-.5 6 6 0 0 1-2.06-1.41 6.33 6.33 0 0 1-1.32-2.13 7.46 7.46 0 0 1-.47-2.68c0-.97.16-1.86.47-2.68a6.34 6.34 0 0 1 1.32-2.13 6.01 6.01 0 0 1 2.06-1.4c.8-.34 1.68-.51 2.65-.51s1.86.17 2.65.5c.8.35 1.48.82 2.05 1.41a6.32 6.32 0 0 1 1.32 2.13c.31.82.47 1.71.47 2.68m4.26 4.55h5.13v2.02H50.7V3.26h2.38z" ></path></svg>
